<svg width="252" height="368" viewBox="0 0 252 368" fill="none" xmlns="http://www.w3.org/2000/svg">
<path opacity="0.3" d="M1 304.5C12.3333 295.5 17.5 291.333 16.5 292C49.1667 265 74.8333 242.833 93.5 225.5C112.5 208.167 128.5 190 141.5 171C154.5 152 161 133.5 161 115.5C161 101.833 157.833 91.1667 151.5 83.5C145.167 75.8333 135.667 72 123 72C110.333 72 100.333 76.8333 93 86.5C86 95.8334 82.5 109.167 82.5 126.5H0C0.666667 98.1667 6.66667 74.5 18 55.5C29.6667 36.5 44.8333 22.5 63.5 13.5C82.5 4.50001 103.5 0 126.5 0C166.167 0 196 10.1667 216 30.5C236.333 50.8334 246.5 77.3334 246.5 110C246.5 145.667 234.333 178.833 210 209.5C185.667 239.833 154.667 269.5 117 298.5H252V368H1V304.5Z" fill="url(#paint0_linear)"/>
<defs>
<linearGradient id="paint0_linear" x1="279" y1="15" x2="60" y2="385.5" gradientUnits="userSpaceOnUse">
<stop stop-color="#FFD88D"/>
<stop offset="0.353883" stop-color="#F68DFF" stop-opacity="0.63"/>
<stop offset="1" stop-color="#AB8DFF" stop-opacity="0"/>
</linearGradient>
</defs>
</svg>
