<svg width="52" height="67" viewBox="0 0 52 67" fill="none" xmlns="http://www.w3.org/2000/svg">
<path d="M50.5 17.5L37.5 17.5C35.8431 17.5 34.5 16.1569 34.5 14.5L34.5 1.5M51 18.2426V63C51 64.6569 49.6569 66 48 66H4C2.34315 66 1 64.6569 1 63V4C1 2.34315 2.34315 1 4 1H33.7574C34.553 1 35.3161 1.31607 35.8787 1.87868L50.1213 16.1213C50.6839 16.6839 51 17.447 51 18.2426Z" stroke="#B9FF9C" stroke-width="2" stroke-linecap="round" stroke-linejoin="round"/>
<line x1="34" y1="30" x2="18" y2="30" stroke="#B9FF9C" stroke-width="4" stroke-linecap="round" stroke-linejoin="round"/>
<line x1="34" y1="39" x2="18" y2="39" stroke="#B9FF9C" stroke-width="4" stroke-linecap="round" stroke-linejoin="round"/>
<line x1="34" y1="48" x2="28" y2="48" stroke="#B9FF9C" stroke-width="4" stroke-linecap="round" stroke-linejoin="round"/>
</svg>
