<svg width="207" height="123" viewBox="0 0 207 123" fill="none" xmlns="http://www.w3.org/2000/svg">
<path d="M13.5858 122.414C14.3668 123.195 15.6332 123.195 16.4142 122.414L29.1421 109.686C29.9232 108.905 29.9232 107.639 29.1421 106.858C28.3611 106.077 27.0948 106.077 26.3137 106.858L15 118.172L3.6863 106.858C2.90525 106.077 1.63892 106.077 0.857873 106.858C0.0768215 107.639 0.0768214 108.905 0.857873 109.686L13.5858 122.414ZM17 121L17 114.412L13 114.412L13 121L17 121ZM127 4.41186L207 4.41187L207 0.411865L127 0.411863L127 4.41186ZM17 114.412C17 53.6606 66.2487 4.41186 127 4.41186L127 0.411863C64.0396 0.411861 13 51.4514 13 114.412L17 114.412Z" fill="url(#paint0_linear)"/>
<defs>
<linearGradient id="paint0_linear" x1="15" y1="56.534" x2="207" y2="56.534" gradientUnits="userSpaceOnUse">
<stop stop-color="white"/>
<stop offset="0.988102" stop-color="white" stop-opacity="0"/>
</linearGradient>
</defs>
</svg>
