<svg width="440" height="172" viewBox="0 0 440 172" fill="none" xmlns="http://www.w3.org/2000/svg">
<path d="M13.5858 171.414C14.3668 172.195 15.6332 172.195 16.4142 171.414L29.1421 158.686C29.9232 157.905 29.9232 156.639 29.1421 155.858C28.3611 155.077 27.0948 155.077 26.3137 155.858L15 167.172L3.68627 155.858C2.90524 155.077 1.63891 155.077 0.857842 155.858C0.076806 156.639 0.0768059 157.905 0.857842 158.686L13.5858 171.414ZM17 170L17 114L13 114L13 170L17 170ZM127 3.99999L440 4L440 0L127 -1.36817e-05L127 3.99999ZM17 114C17 53.2487 66.2487 3.99998 127 3.99999L127 -1.36817e-05C64.0395 -1.64338e-05 13 51.0395 13 114L17 114Z" fill="url(#paint0_linear)"/>
<defs>
<linearGradient id="paint0_linear" x1="15" y1="78.673" x2="440" y2="78.673" gradientUnits="userSpaceOnUse">
<stop stop-color="white"/>
<stop offset="0.988102" stop-color="white" stop-opacity="0"/>
</linearGradient>
</defs>
</svg>
