<svg width="495" height="172" viewBox="0 0 495 172" fill="none" xmlns="http://www.w3.org/2000/svg">
<path d="M481.414 171.414C480.633 172.195 479.367 172.195 478.586 171.414L465.858 158.686C465.077 157.905 465.077 156.639 465.858 155.858C466.639 155.077 467.905 155.077 468.686 155.858L480 167.172L491.314 155.858C492.095 155.077 493.361 155.077 494.142 155.858C494.923 156.639 494.923 157.905 494.142 158.686L481.414 171.414ZM478 170L478 114L482 114L482 170L478 170ZM368 3.99998L8.74228e-08 4L-8.74228e-08 0L368 -1.60858e-05L368 3.99998ZM478 114C478 53.2487 428.751 3.99998 368 3.99998L368 -1.60858e-05C430.96 -1.88379e-05 482 51.0395 482 114L478 114Z" fill="url(#paint0_linear)"/>
<defs>
<linearGradient id="paint0_linear" x1="480" y1="78.673" x2="6.52735e-07" y2="78.673" gradientUnits="userSpaceOnUse">
<stop stop-color="white"/>
<stop offset="0.988102" stop-color="white" stop-opacity="0"/>
</linearGradient>
</defs>
</svg>
