<svg width="145" height="152" viewBox="0 0 145 152" fill="none" xmlns="http://www.w3.org/2000/svg">
<g opacity="0.5" clip-path="url(#clip0)">
<rect opacity="0.6" x="6.61719" y="95.625" width="89.937" height="6.375" rx="3.1875" fill="white"/>
<path opacity="0.2" fill-rule="evenodd" clip-rule="evenodd" d="M17.0413 95.6252C14.8321 95.6252 13.0413 93.8343 13.0413 91.6252V38.6007C13.0413 37.3732 13.6049 36.2136 14.5702 35.4553L49.1146 8.3165C50.565 7.17705 52.6064 7.17705 54.0568 8.3165L88.6012 35.4553C89.5664 36.2136 90.1301 37.3732 90.1301 38.6007V91.6252C90.1301 93.8343 88.3392 95.6252 86.1301 95.6252H51.5857H17.0413Z" fill="white"/>
<rect opacity="0.2" width="25.6963" height="44.625" rx="4" transform="matrix(-1 0 0 1 64.4338 51.0005)" fill="white"/>
<path opacity="0.6" fill-rule="evenodd" clip-rule="evenodd" d="M49.9434 4.02777C50.4199 3.48458 51.1231 3.16621 51.848 3.17071C52.5733 3.16585 53.277 3.48428 53.7538 4.0278L74.07 20.4086V8.84356C74.07 7.73899 74.9654 6.84356 76.07 6.84356H84.9181C86.0227 6.84356 86.9181 7.73899 86.9181 8.84356V28.3619C86.9181 29.097 86.5436 29.6917 86.0115 30.037L99.8081 41.1611C100.392 41.6321 100.732 42.3423 100.732 43.0928C100.732 45.1778 98.3163 46.3332 96.6931 45.0245L51.8486 8.86664L7.0041 45.0245C5.38093 46.3332 2.96521 45.1778 2.96521 43.0928C2.96521 42.3423 3.30486 41.6321 3.88908 41.1611L49.9434 4.02777Z" fill="white"/>
</g>
<circle cx="101" cy="108" r="43" stroke="white" stroke-width="2"/>
<path d="M109.125 102.125L97.8321 113.418C97.4416 113.808 96.8084 113.808 96.4179 113.418L91.125 108.125" stroke="white" stroke-width="3" stroke-linecap="round" stroke-linejoin="round"/>
<defs>
<clipPath id="clip0">
<rect width="102.785" height="102" fill="white" transform="translate(0.193115)"/>
</clipPath>
</defs>
</svg>
