<svg width="263" height="348" viewBox="0 0 263 348" fill="none" xmlns="http://www.w3.org/2000/svg">
<g opacity="0.5" clip-path="url(#clip0)">
<rect opacity="0.6" x="6.42407" y="291.625" width="89.937" height="6.375" rx="3.1875" fill="white"/>
<path opacity="0.2" fill-rule="evenodd" clip-rule="evenodd" d="M16.8481 291.625C14.639 291.625 12.8481 289.834 12.8481 287.625V234.601C12.8481 233.373 13.4118 232.214 14.377 231.455L48.9215 204.316C50.3718 203.177 52.4133 203.177 53.8637 204.316L88.4081 231.455C89.3733 232.214 89.937 233.373 89.937 234.601V287.625C89.937 289.834 88.1461 291.625 85.937 291.625H51.3926H16.8481Z" fill="white"/>
<rect opacity="0.2" width="25.6963" height="44.625" rx="4" transform="matrix(-1 0 0 1 64.2407 247)" fill="white"/>
<path opacity="0.6" fill-rule="evenodd" clip-rule="evenodd" d="M49.7503 200.028C50.2268 199.485 50.93 199.166 51.6549 199.171C52.3802 199.166 53.0839 199.484 53.5607 200.028L73.8769 216.409V204.844C73.8769 203.739 74.7723 202.844 75.8769 202.844H84.725C85.8296 202.844 86.725 203.739 86.725 204.844V224.362C86.725 225.097 86.3505 225.692 85.8184 226.037L99.615 237.161C100.199 237.632 100.539 238.342 100.539 239.093C100.539 241.178 98.1231 242.333 96.5 241.024L51.6555 204.867L6.81099 241.024C5.18782 242.333 2.77209 241.178 2.77209 239.093C2.77209 238.342 3.11174 237.632 3.69597 237.161L49.7503 200.028Z" fill="white"/>
</g>
<circle cx="100.807" cy="304" r="43" stroke="white" stroke-width="2"/>
<path d="M108.932 298.125L97.639 309.418C97.2485 309.808 96.6153 309.808 96.2248 309.418L90.9319 304.125" stroke="white" stroke-width="3" stroke-linecap="round" stroke-linejoin="round"/>
<path d="M78.18 92.38H71.94V95.14C72.2067 94.8467 72.58 94.6067 73.06 94.42C73.54 94.2333 74.06 94.14 74.62 94.14C75.62 94.14 76.4467 94.3667 77.1 94.82C77.7667 95.2733 78.2533 95.86 78.56 96.58C78.8667 97.3 79.02 98.08 79.02 98.92C79.02 100.48 78.58 101.72 77.7 102.64C76.82 103.547 75.58 104 73.98 104C72.9133 104 71.9867 103.82 71.2 103.46C70.4133 103.087 69.8067 102.573 69.38 101.92C68.9533 101.267 68.72 100.513 68.68 99.66H72.02C72.1 100.073 72.2933 100.42 72.6 100.7C72.9067 100.967 73.3267 101.1 73.86 101.1C74.4867 101.1 74.9533 100.9 75.26 100.5C75.5667 100.1 75.72 99.5667 75.72 98.9C75.72 98.2467 75.56 97.7467 75.24 97.4C74.92 97.0533 74.4533 96.88 73.84 96.88C73.3867 96.88 73.0133 96.9933 72.72 97.22C72.4267 97.4333 72.2333 97.72 72.14 98.08H68.84V89.38H78.18V92.38ZM88.1278 93.34C88.0211 92.8467 87.8345 92.48 87.5678 92.24C87.3011 91.9867 86.9211 91.86 86.4278 91.86C85.6678 91.86 85.1211 92.1933 84.7878 92.86C84.4545 93.5133 84.2811 94.5533 84.2678 95.98C84.5611 95.5133 84.9811 95.1467 85.5278 94.88C86.0878 94.6133 86.7011 94.48 87.3678 94.48C88.6745 94.48 89.7211 94.8933 90.5078 95.72C91.3078 96.5467 91.7078 97.7 91.7078 99.18C91.7078 100.153 91.5078 101.007 91.1078 101.74C90.7211 102.473 90.1478 103.047 89.3878 103.46C88.6411 103.873 87.7545 104.08 86.7278 104.08C84.6745 104.08 83.2478 103.44 82.4478 102.16C81.6478 100.867 81.2478 99.0133 81.2478 96.6C81.2478 94.0667 81.6678 92.1867 82.5078 90.96C83.3611 89.72 84.7211 89.1 86.5878 89.1C87.5878 89.1 88.4278 89.3 89.1078 89.7C89.8011 90.0867 90.3211 90.6 90.6678 91.24C91.0278 91.88 91.2411 92.58 91.3078 93.34H88.1278ZM86.5478 97.18C85.9745 97.18 85.4945 97.3533 85.1078 97.7C84.7345 98.0333 84.5478 98.5133 84.5478 99.14C84.5478 99.78 84.7211 100.28 85.0678 100.64C85.4278 101 85.9345 101.18 86.5878 101.18C87.1745 101.18 87.6345 101.007 87.9678 100.66C88.3145 100.3 88.4878 99.8133 88.4878 99.2C88.4878 98.5733 88.3211 98.08 87.9878 97.72C87.6545 97.36 87.1745 97.18 86.5478 97.18ZM93.7222 101.4V98.64L100.042 89.6H103.862V98.44H105.502V101.4H103.862V104H100.442V101.4H93.7222ZM100.682 93.36L97.3222 98.44H100.682V93.36ZM111.197 100.84L108.977 106.58H106.797L107.957 100.84H111.197ZM112.92 96.5C112.92 94.2067 113.36 92.4 114.24 91.08C115.133 89.76 116.566 89.1 118.54 89.1C120.513 89.1 121.94 89.76 122.82 91.08C123.713 92.4 124.16 94.2067 124.16 96.5C124.16 98.82 123.713 100.64 122.82 101.96C121.94 103.28 120.513 103.94 118.54 103.94C116.566 103.94 115.133 103.28 114.24 101.96C113.36 100.64 112.92 98.82 112.92 96.5ZM120.8 96.5C120.8 95.1533 120.653 94.12 120.36 93.4C120.066 92.6667 119.46 92.3 118.54 92.3C117.62 92.3 117.013 92.6667 116.72 93.4C116.426 94.12 116.28 95.1533 116.28 96.5C116.28 97.4067 116.333 98.16 116.44 98.76C116.546 99.3467 116.76 99.8267 117.08 100.2C117.413 100.56 117.9 100.74 118.54 100.74C119.18 100.74 119.66 100.56 119.98 100.2C120.313 99.8267 120.533 99.3467 120.64 98.76C120.746 98.16 120.8 97.4067 120.8 96.5ZM125.966 96.5C125.966 94.2067 126.406 92.4 127.286 91.08C128.18 89.76 129.613 89.1 131.586 89.1C133.56 89.1 134.986 89.76 135.866 91.08C136.76 92.4 137.206 94.2067 137.206 96.5C137.206 98.82 136.76 100.64 135.866 101.96C134.986 103.28 133.56 103.94 131.586 103.94C129.613 103.94 128.18 103.28 127.286 101.96C126.406 100.64 125.966 98.82 125.966 96.5ZM133.846 96.5C133.846 95.1533 133.7 94.12 133.406 93.4C133.113 92.6667 132.506 92.3 131.586 92.3C130.666 92.3 130.06 92.6667 129.766 93.4C129.473 94.12 129.326 95.1533 129.326 96.5C129.326 97.4067 129.38 98.16 129.486 98.76C129.593 99.3467 129.806 99.8267 130.126 100.2C130.46 100.56 130.946 100.74 131.586 100.74C132.226 100.74 132.706 100.56 133.026 100.2C133.36 99.8267 133.58 99.3467 133.686 98.76C133.793 98.16 133.846 97.4067 133.846 96.5ZM139.013 96.5C139.013 94.2067 139.453 92.4 140.333 91.08C141.227 89.76 142.66 89.1 144.633 89.1C146.607 89.1 148.033 89.76 148.913 91.08C149.807 92.4 150.253 94.2067 150.253 96.5C150.253 98.82 149.807 100.64 148.913 101.96C148.033 103.28 146.607 103.94 144.633 103.94C142.66 103.94 141.227 103.28 140.333 101.96C139.453 100.64 139.013 98.82 139.013 96.5ZM146.893 96.5C146.893 95.1533 146.747 94.12 146.453 93.4C146.16 92.6667 145.553 92.3 144.633 92.3C143.713 92.3 143.107 92.6667 142.813 93.4C142.52 94.12 142.373 95.1533 142.373 96.5C142.373 97.4067 142.427 98.16 142.533 98.76C142.64 99.3467 142.853 99.8267 143.173 100.2C143.507 100.56 143.993 100.74 144.633 100.74C145.273 100.74 145.753 100.56 146.073 100.2C146.407 99.8267 146.627 99.3467 146.733 98.76C146.84 98.16 146.893 97.4067 146.893 96.5ZM67.66 116.96C67.66 115.573 67.96 114.34 68.56 113.26C69.16 112.167 69.9933 111.32 71.06 110.72C72.14 110.107 73.36 109.8 74.72 109.8C76.3867 109.8 77.8133 110.24 79 111.12C80.1867 112 80.98 113.2 81.38 114.72H77.62C77.34 114.133 76.94 113.687 76.42 113.38C75.9133 113.073 75.3333 112.92 74.68 112.92C73.6267 112.92 72.7733 113.287 72.12 114.02C71.4667 114.753 71.14 115.733 71.14 116.96C71.14 118.187 71.4667 119.167 72.12 119.9C72.7733 120.633 73.6267 121 74.68 121C75.3333 121 75.9133 120.847 76.42 120.54C76.94 120.233 77.34 119.787 77.62 119.2H81.38C80.98 120.72 80.1867 121.92 79 122.8C77.8133 123.667 76.3867 124.1 74.72 124.1C73.36 124.1 72.14 123.8 71.06 123.2C69.9933 122.587 69.16 121.74 68.56 120.66C67.96 119.58 67.66 118.347 67.66 116.96ZM95.6344 109.96V124H92.2144V118.22H86.8944V124H83.4744V109.96H86.8944V115.46H92.2144V109.96H95.6344ZM107.243 109.96V112.7H101.523V115.66H105.803V118.32H101.523V124H98.1033V109.96H107.243Z" fill="white"/>
<rect opacity="0.5" x="175" y="348" width="301" height="20" rx="10" transform="rotate(-90 175 348)" fill="url(#paint0_linear)"/>
<rect opacity="0.5" x="132" y="347" width="213" height="20" rx="10" transform="rotate(-90 132 347)" fill="url(#paint1_linear)"/>
<path d="M186.54 4.96L181.52 17H178.02L183.1 5.34H176.88V2.42H186.54V4.96ZM187.923 9.5C187.923 7.20667 188.363 5.4 189.243 4.08C190.137 2.76 191.57 2.1 193.543 2.1C195.517 2.1 196.943 2.76 197.823 4.08C198.717 5.4 199.163 7.20667 199.163 9.5C199.163 11.82 198.717 13.64 197.823 14.96C196.943 16.28 195.517 16.94 193.543 16.94C191.57 16.94 190.137 16.28 189.243 14.96C188.363 13.64 187.923 11.82 187.923 9.5ZM195.803 9.5C195.803 8.15333 195.657 7.12 195.363 6.4C195.07 5.66667 194.463 5.3 193.543 5.3C192.623 5.3 192.017 5.66667 191.723 6.4C191.43 7.12 191.283 8.15333 191.283 9.5C191.283 10.4067 191.337 11.16 191.443 11.76C191.55 12.3467 191.763 12.8267 192.083 13.2C192.417 13.56 192.903 13.74 193.543 13.74C194.183 13.74 194.663 13.56 194.983 13.2C195.317 12.8267 195.537 12.3467 195.643 11.76C195.75 11.16 195.803 10.4067 195.803 9.5ZM200.97 9.5C200.97 7.20667 201.41 5.4 202.29 4.08C203.184 2.76 204.617 2.1 206.59 2.1C208.564 2.1 209.99 2.76 210.87 4.08C211.764 5.4 212.21 7.20667 212.21 9.5C212.21 11.82 211.764 13.64 210.87 14.96C209.99 16.28 208.564 16.94 206.59 16.94C204.617 16.94 203.184 16.28 202.29 14.96C201.41 13.64 200.97 11.82 200.97 9.5ZM208.85 9.5C208.85 8.15333 208.704 7.12 208.41 6.4C208.117 5.66667 207.51 5.3 206.59 5.3C205.67 5.3 205.064 5.66667 204.77 6.4C204.477 7.12 204.33 8.15333 204.33 9.5C204.33 10.4067 204.384 11.16 204.49 11.76C204.597 12.3467 204.81 12.8267 205.13 13.2C205.464 13.56 205.95 13.74 206.59 13.74C207.23 13.74 207.71 13.56 208.03 13.2C208.364 12.8267 208.584 12.3467 208.69 11.76C208.797 11.16 208.85 10.4067 208.85 9.5ZM218.037 13.84L215.817 19.58H213.637L214.797 13.84H218.037ZM219.759 9.5C219.759 7.20667 220.199 5.4 221.079 4.08C221.973 2.76 223.406 2.1 225.379 2.1C227.353 2.1 228.779 2.76 229.659 4.08C230.553 5.4 230.999 7.20667 230.999 9.5C230.999 11.82 230.553 13.64 229.659 14.96C228.779 16.28 227.353 16.94 225.379 16.94C223.406 16.94 221.973 16.28 221.079 14.96C220.199 13.64 219.759 11.82 219.759 9.5ZM227.639 9.5C227.639 8.15333 227.493 7.12 227.199 6.4C226.906 5.66667 226.299 5.3 225.379 5.3C224.459 5.3 223.853 5.66667 223.559 6.4C223.266 7.12 223.119 8.15333 223.119 9.5C223.119 10.4067 223.173 11.16 223.279 11.76C223.386 12.3467 223.599 12.8267 223.919 13.2C224.253 13.56 224.739 13.74 225.379 13.74C226.019 13.74 226.499 13.56 226.819 13.2C227.153 12.8267 227.373 12.3467 227.479 11.76C227.586 11.16 227.639 10.4067 227.639 9.5ZM232.806 9.5C232.806 7.20667 233.246 5.4 234.126 4.08C235.02 2.76 236.453 2.1 238.426 2.1C240.4 2.1 241.826 2.76 242.706 4.08C243.6 5.4 244.046 7.20667 244.046 9.5C244.046 11.82 243.6 13.64 242.706 14.96C241.826 16.28 240.4 16.94 238.426 16.94C236.453 16.94 235.02 16.28 234.126 14.96C233.246 13.64 232.806 11.82 232.806 9.5ZM240.686 9.5C240.686 8.15333 240.54 7.12 240.246 6.4C239.953 5.66667 239.346 5.3 238.426 5.3C237.506 5.3 236.9 5.66667 236.606 6.4C236.313 7.12 236.166 8.15333 236.166 9.5C236.166 10.4067 236.22 11.16 236.326 11.76C236.433 12.3467 236.646 12.8267 236.966 13.2C237.3 13.56 237.786 13.74 238.426 13.74C239.066 13.74 239.546 13.56 239.866 13.2C240.2 12.8267 240.42 12.3467 240.526 11.76C240.633 11.16 240.686 10.4067 240.686 9.5ZM245.853 9.5C245.853 7.20667 246.293 5.4 247.173 4.08C248.066 2.76 249.5 2.1 251.473 2.1C253.446 2.1 254.873 2.76 255.753 4.08C256.646 5.4 257.093 7.20667 257.093 9.5C257.093 11.82 256.646 13.64 255.753 14.96C254.873 16.28 253.446 16.94 251.473 16.94C249.5 16.94 248.066 16.28 247.173 14.96C246.293 13.64 245.853 11.82 245.853 9.5ZM253.733 9.5C253.733 8.15333 253.586 7.12 253.293 6.4C253 5.66667 252.393 5.3 251.473 5.3C250.553 5.3 249.946 5.66667 249.653 6.4C249.36 7.12 249.213 8.15333 249.213 9.5C249.213 10.4067 249.266 11.16 249.373 11.76C249.48 12.3467 249.693 12.8267 250.013 13.2C250.346 13.56 250.833 13.74 251.473 13.74C252.113 13.74 252.593 13.56 252.913 13.2C253.246 12.8267 253.466 12.3467 253.573 11.76C253.68 11.16 253.733 10.4067 253.733 9.5ZM217.859 29.96C217.859 28.5733 218.159 27.34 218.759 26.26C219.359 25.1667 220.193 24.32 221.259 23.72C222.339 23.1067 223.559 22.8 224.919 22.8C226.586 22.8 228.013 23.24 229.199 24.12C230.386 25 231.179 26.2 231.579 27.72H227.819C227.539 27.1333 227.139 26.6867 226.619 26.38C226.113 26.0733 225.533 25.92 224.879 25.92C223.826 25.92 222.973 26.2867 222.319 27.02C221.666 27.7533 221.339 28.7333 221.339 29.96C221.339 31.1867 221.666 32.1667 222.319 32.9C222.973 33.6333 223.826 34 224.879 34C225.533 34 226.113 33.8467 226.619 33.54C227.139 33.2333 227.539 32.7867 227.819 32.2H231.579C231.179 33.72 230.386 34.92 229.199 35.8C228.013 36.6667 226.586 37.1 224.919 37.1C223.559 37.1 222.339 36.8 221.259 36.2C220.193 35.5867 219.359 34.74 218.759 33.66C218.159 32.58 217.859 31.3467 217.859 29.96ZM245.834 22.96V37H242.414V31.22H237.094V37H233.674V22.96H237.094V28.46H242.414V22.96H245.834ZM257.443 22.96V25.7H251.723V28.66H256.003V31.32H251.723V37H248.303V22.96H257.443Z" fill="white"/>
<path d="M187.548 48L261.11 48" stroke="white" stroke-width="2" stroke-linecap="round" stroke-dasharray="0.1 5"/>
<path d="M142 135L67 135" stroke="white" stroke-linecap="round"/>
<defs>
<linearGradient id="paint0_linear" x1="476" y1="368" x2="175" y2="368" gradientUnits="userSpaceOnUse">
<stop stop-color="white"/>
<stop offset="1" stop-color="white" stop-opacity="0.1"/>
</linearGradient>
<linearGradient id="paint1_linear" x1="345" y1="367" x2="132" y2="367" gradientUnits="userSpaceOnUse">
<stop stop-color="white"/>
<stop offset="1" stop-color="white" stop-opacity="0.1"/>
</linearGradient>
<clipPath id="clip0">
<rect width="102.785" height="102" fill="white" transform="translate(0 196)"/>
</clipPath>
</defs>
</svg>
