<svg width="207" height="123" viewBox="0 0 207 123" fill="none" xmlns="http://www.w3.org/2000/svg">
<path d="M193.414 122.414C192.633 123.195 191.367 123.195 190.586 122.414L177.858 109.686C177.077 108.905 177.077 107.639 177.858 106.858C178.639 106.077 179.905 106.077 180.686 106.858L192 118.172L203.314 106.858C204.095 106.077 205.361 106.077 206.142 106.858C206.923 107.639 206.923 108.905 206.142 109.686L193.414 122.414ZM190 121L190 114.412L194 114.412L194 121L190 121ZM80 4.41186L-0.000121946 4.41187L-0.000122194 0.411865L80 0.411863L80 4.41186ZM190 114.412C190 53.6606 140.751 4.41186 80 4.41186L80 0.411863C142.96 0.411861 194 51.4514 194 114.412L190 114.412Z" fill="url(#paint0_linear)"/>
<defs>
<linearGradient id="paint0_linear" x1="192" y1="56.534" x2="-0.000119798" y2="56.534" gradientUnits="userSpaceOnUse">
<stop stop-color="white"/>
<stop offset="0.988102" stop-color="white" stop-opacity="0"/>
</linearGradient>
</defs>
</svg>
