<svg width="292" height="348" viewBox="0 0 292 348" fill="none" xmlns="http://www.w3.org/2000/svg">
<g opacity="0.5" clip-path="url(#clip0)">
<rect opacity="0.6" x="6.42404" y="291.625" width="89.937" height="6.375" rx="3.1875" fill="white"/>
<path opacity="0.2" fill-rule="evenodd" clip-rule="evenodd" d="M16.8481 291.625C14.639 291.625 12.8481 289.834 12.8481 287.625V234.601C12.8481 233.373 13.4117 232.214 14.377 231.455L48.9214 204.316C50.3718 203.177 52.4133 203.177 53.8636 204.316L88.408 231.455C89.3733 232.214 89.9369 233.373 89.9369 234.601V287.625C89.9369 289.834 88.1461 291.625 85.9369 291.625H51.3925H16.8481Z" fill="white"/>
<rect opacity="0.2" width="25.6963" height="44.625" rx="4" transform="matrix(-1 0 0 1 64.2407 247)" fill="white"/>
<path opacity="0.6" fill-rule="evenodd" clip-rule="evenodd" d="M49.7503 200.028C50.2268 199.485 50.93 199.166 51.6549 199.171C52.3802 199.166 53.0839 199.484 53.5607 200.028L73.8769 216.409V204.844C73.8769 203.739 74.7723 202.844 75.8769 202.844H84.725C85.8296 202.844 86.725 203.739 86.725 204.844V224.362C86.725 225.097 86.3505 225.692 85.8184 226.037L99.615 237.161C100.199 237.632 100.539 238.342 100.539 239.093C100.539 241.178 98.1231 242.333 96.5 241.024L51.6555 204.867L6.81099 241.024C5.18782 242.333 2.77209 241.178 2.77209 239.093C2.77209 238.342 3.11174 237.632 3.69597 237.161L49.7503 200.028Z" fill="white"/>
</g>
<circle cx="100.807" cy="304" r="43" stroke="white" stroke-width="2"/>
<path d="M108.932 298.125L97.639 309.418C97.2484 309.808 96.6153 309.808 96.2247 309.418L90.9319 304.125" stroke="white" stroke-width="3" stroke-linecap="round" stroke-linejoin="round"/>
<path opacity="0.3" d="M107.18 92.38H100.94V95.14C101.207 94.8467 101.58 94.6067 102.06 94.42C102.54 94.2333 103.06 94.14 103.62 94.14C104.62 94.14 105.447 94.3667 106.1 94.82C106.767 95.2733 107.253 95.86 107.56 96.58C107.867 97.3 108.02 98.08 108.02 98.92C108.02 100.48 107.58 101.72 106.7 102.64C105.82 103.547 104.58 104 102.98 104C101.913 104 100.987 103.82 100.2 103.46C99.4133 103.087 98.8067 102.573 98.38 101.92C97.9533 101.267 97.72 100.513 97.68 99.66H101.02C101.1 100.073 101.293 100.42 101.6 100.7C101.907 100.967 102.327 101.1 102.86 101.1C103.487 101.1 103.953 100.9 104.26 100.5C104.567 100.1 104.72 99.5667 104.72 98.9C104.72 98.2467 104.56 97.7467 104.24 97.4C103.92 97.0533 103.453 96.88 102.84 96.88C102.387 96.88 102.013 96.9933 101.72 97.22C101.427 97.4333 101.233 97.72 101.14 98.08H97.84V89.38H107.18V92.38ZM117.128 93.34C117.021 92.8467 116.834 92.48 116.568 92.24C116.301 91.9867 115.921 91.86 115.428 91.86C114.668 91.86 114.121 92.1933 113.788 92.86C113.454 93.5133 113.281 94.5533 113.268 95.98C113.561 95.5133 113.981 95.1467 114.528 94.88C115.088 94.6133 115.701 94.48 116.368 94.48C117.674 94.48 118.721 94.8933 119.508 95.72C120.308 96.5467 120.708 97.7 120.708 99.18C120.708 100.153 120.508 101.007 120.108 101.74C119.721 102.473 119.148 103.047 118.388 103.46C117.641 103.873 116.754 104.08 115.728 104.08C113.674 104.08 112.248 103.44 111.448 102.16C110.648 100.867 110.248 99.0133 110.248 96.6C110.248 94.0667 110.668 92.1867 111.508 90.96C112.361 89.72 113.721 89.1 115.588 89.1C116.588 89.1 117.428 89.3 118.108 89.7C118.801 90.0867 119.321 90.6 119.668 91.24C120.028 91.88 120.241 92.58 120.308 93.34H117.128ZM115.548 97.18C114.974 97.18 114.494 97.3533 114.108 97.7C113.734 98.0333 113.548 98.5133 113.548 99.14C113.548 99.78 113.721 100.28 114.068 100.64C114.428 101 114.934 101.18 115.588 101.18C116.174 101.18 116.634 101.007 116.968 100.66C117.314 100.3 117.488 99.8133 117.488 99.2C117.488 98.5733 117.321 98.08 116.988 97.72C116.654 97.36 116.174 97.18 115.548 97.18ZM122.722 101.4V98.64L129.042 89.6H132.862V98.44H134.502V101.4H132.862V104H129.442V101.4H122.722ZM129.682 93.36L126.322 98.44H129.682V93.36ZM140.197 100.84L137.977 106.58H135.797L136.957 100.84H140.197ZM141.92 96.5C141.92 94.2067 142.36 92.4 143.24 91.08C144.133 89.76 145.566 89.1 147.54 89.1C149.513 89.1 150.94 89.76 151.82 91.08C152.713 92.4 153.16 94.2067 153.16 96.5C153.16 98.82 152.713 100.64 151.82 101.96C150.94 103.28 149.513 103.94 147.54 103.94C145.566 103.94 144.133 103.28 143.24 101.96C142.36 100.64 141.92 98.82 141.92 96.5ZM149.8 96.5C149.8 95.1533 149.653 94.12 149.36 93.4C149.066 92.6667 148.46 92.3 147.54 92.3C146.62 92.3 146.013 92.6667 145.72 93.4C145.426 94.12 145.28 95.1533 145.28 96.5C145.28 97.4067 145.333 98.16 145.44 98.76C145.546 99.3467 145.76 99.8267 146.08 100.2C146.413 100.56 146.9 100.74 147.54 100.74C148.18 100.74 148.66 100.56 148.98 100.2C149.313 99.8267 149.533 99.3467 149.64 98.76C149.746 98.16 149.8 97.4067 149.8 96.5ZM154.966 96.5C154.966 94.2067 155.406 92.4 156.286 91.08C157.18 89.76 158.613 89.1 160.586 89.1C162.56 89.1 163.986 89.76 164.866 91.08C165.76 92.4 166.206 94.2067 166.206 96.5C166.206 98.82 165.76 100.64 164.866 101.96C163.986 103.28 162.56 103.94 160.586 103.94C158.613 103.94 157.18 103.28 156.286 101.96C155.406 100.64 154.966 98.82 154.966 96.5ZM162.846 96.5C162.846 95.1533 162.7 94.12 162.406 93.4C162.113 92.6667 161.506 92.3 160.586 92.3C159.666 92.3 159.06 92.6667 158.766 93.4C158.473 94.12 158.326 95.1533 158.326 96.5C158.326 97.4067 158.38 98.16 158.486 98.76C158.593 99.3467 158.806 99.8267 159.126 100.2C159.46 100.56 159.946 100.74 160.586 100.74C161.226 100.74 161.706 100.56 162.026 100.2C162.36 99.8267 162.58 99.3467 162.686 98.76C162.793 98.16 162.846 97.4067 162.846 96.5ZM168.013 96.5C168.013 94.2067 168.453 92.4 169.333 91.08C170.227 89.76 171.66 89.1 173.633 89.1C175.607 89.1 177.033 89.76 177.913 91.08C178.807 92.4 179.253 94.2067 179.253 96.5C179.253 98.82 178.807 100.64 177.913 101.96C177.033 103.28 175.607 103.94 173.633 103.94C171.66 103.94 170.227 103.28 169.333 101.96C168.453 100.64 168.013 98.82 168.013 96.5ZM175.893 96.5C175.893 95.1533 175.747 94.12 175.453 93.4C175.16 92.6667 174.553 92.3 173.633 92.3C172.713 92.3 172.107 92.6667 171.813 93.4C171.52 94.12 171.373 95.1533 171.373 96.5C171.373 97.4067 171.427 98.16 171.533 98.76C171.64 99.3467 171.853 99.8267 172.173 100.2C172.507 100.56 172.993 100.74 173.633 100.74C174.273 100.74 174.753 100.56 175.073 100.2C175.407 99.8267 175.627 99.3467 175.733 98.76C175.84 98.16 175.893 97.4067 175.893 96.5ZM96.66 116.96C96.66 115.573 96.96 114.34 97.56 113.26C98.16 112.167 98.9933 111.32 100.06 110.72C101.14 110.107 102.36 109.8 103.72 109.8C105.387 109.8 106.813 110.24 108 111.12C109.187 112 109.98 113.2 110.38 114.72H106.62C106.34 114.133 105.94 113.687 105.42 113.38C104.913 113.073 104.333 112.92 103.68 112.92C102.627 112.92 101.773 113.287 101.12 114.02C100.467 114.753 100.14 115.733 100.14 116.96C100.14 118.187 100.467 119.167 101.12 119.9C101.773 120.633 102.627 121 103.68 121C104.333 121 104.913 120.847 105.42 120.54C105.94 120.233 106.34 119.787 106.62 119.2H110.38C109.98 120.72 109.187 121.92 108 122.8C106.813 123.667 105.387 124.1 103.72 124.1C102.36 124.1 101.14 123.8 100.06 123.2C98.9933 122.587 98.16 121.74 97.56 120.66C96.96 119.58 96.66 118.347 96.66 116.96ZM124.634 109.96V124H121.214V118.22H115.894V124H112.474V109.96H115.894V115.46H121.214V109.96H124.634ZM136.243 109.96V112.7H130.523V115.66H134.803V118.32H130.523V124H127.103V109.96H136.243Z" fill="white"/>
<rect opacity="0.5" x="204" y="348" width="301" height="20" rx="10" transform="rotate(-90 204 348)" fill="url(#paint0_linear)"/>
<rect opacity="0.5" x="161" y="347" width="213" height="20" rx="10" transform="rotate(-90 161 347)" fill="url(#paint1_linear)"/>
<path opacity="0.3" d="M215.54 4.96L210.52 17H207.02L212.1 5.34H205.88V2.42H215.54V4.96ZM216.923 9.5C216.923 7.20667 217.363 5.4 218.243 4.08C219.137 2.76 220.57 2.1 222.543 2.1C224.517 2.1 225.943 2.76 226.823 4.08C227.717 5.4 228.163 7.20667 228.163 9.5C228.163 11.82 227.717 13.64 226.823 14.96C225.943 16.28 224.517 16.94 222.543 16.94C220.57 16.94 219.137 16.28 218.243 14.96C217.363 13.64 216.923 11.82 216.923 9.5ZM224.803 9.5C224.803 8.15333 224.657 7.12 224.363 6.4C224.07 5.66667 223.463 5.3 222.543 5.3C221.623 5.3 221.017 5.66667 220.723 6.4C220.43 7.12 220.283 8.15333 220.283 9.5C220.283 10.4067 220.337 11.16 220.443 11.76C220.55 12.3467 220.763 12.8267 221.083 13.2C221.417 13.56 221.903 13.74 222.543 13.74C223.183 13.74 223.663 13.56 223.983 13.2C224.317 12.8267 224.537 12.3467 224.643 11.76C224.75 11.16 224.803 10.4067 224.803 9.5ZM229.97 9.5C229.97 7.20667 230.41 5.4 231.29 4.08C232.184 2.76 233.617 2.1 235.59 2.1C237.564 2.1 238.99 2.76 239.87 4.08C240.764 5.4 241.21 7.20667 241.21 9.5C241.21 11.82 240.764 13.64 239.87 14.96C238.99 16.28 237.564 16.94 235.59 16.94C233.617 16.94 232.184 16.28 231.29 14.96C230.41 13.64 229.97 11.82 229.97 9.5ZM237.85 9.5C237.85 8.15333 237.704 7.12 237.41 6.4C237.117 5.66667 236.51 5.3 235.59 5.3C234.67 5.3 234.064 5.66667 233.77 6.4C233.477 7.12 233.33 8.15333 233.33 9.5C233.33 10.4067 233.384 11.16 233.49 11.76C233.597 12.3467 233.81 12.8267 234.13 13.2C234.464 13.56 234.95 13.74 235.59 13.74C236.23 13.74 236.71 13.56 237.03 13.2C237.364 12.8267 237.584 12.3467 237.69 11.76C237.797 11.16 237.85 10.4067 237.85 9.5ZM247.037 13.84L244.817 19.58H242.637L243.797 13.84H247.037ZM248.759 9.5C248.759 7.20667 249.199 5.4 250.079 4.08C250.973 2.76 252.406 2.1 254.379 2.1C256.353 2.1 257.779 2.76 258.659 4.08C259.553 5.4 259.999 7.20667 259.999 9.5C259.999 11.82 259.553 13.64 258.659 14.96C257.779 16.28 256.353 16.94 254.379 16.94C252.406 16.94 250.973 16.28 250.079 14.96C249.199 13.64 248.759 11.82 248.759 9.5ZM256.639 9.5C256.639 8.15333 256.493 7.12 256.199 6.4C255.906 5.66667 255.299 5.3 254.379 5.3C253.459 5.3 252.853 5.66667 252.559 6.4C252.266 7.12 252.119 8.15333 252.119 9.5C252.119 10.4067 252.173 11.16 252.279 11.76C252.386 12.3467 252.599 12.8267 252.919 13.2C253.253 13.56 253.739 13.74 254.379 13.74C255.019 13.74 255.499 13.56 255.819 13.2C256.153 12.8267 256.373 12.3467 256.479 11.76C256.586 11.16 256.639 10.4067 256.639 9.5ZM261.806 9.5C261.806 7.20667 262.246 5.4 263.126 4.08C264.02 2.76 265.453 2.1 267.426 2.1C269.4 2.1 270.826 2.76 271.706 4.08C272.6 5.4 273.046 7.20667 273.046 9.5C273.046 11.82 272.6 13.64 271.706 14.96C270.826 16.28 269.4 16.94 267.426 16.94C265.453 16.94 264.02 16.28 263.126 14.96C262.246 13.64 261.806 11.82 261.806 9.5ZM269.686 9.5C269.686 8.15333 269.54 7.12 269.246 6.4C268.953 5.66667 268.346 5.3 267.426 5.3C266.506 5.3 265.9 5.66667 265.606 6.4C265.313 7.12 265.166 8.15333 265.166 9.5C265.166 10.4067 265.22 11.16 265.326 11.76C265.433 12.3467 265.646 12.8267 265.966 13.2C266.3 13.56 266.786 13.74 267.426 13.74C268.066 13.74 268.546 13.56 268.866 13.2C269.2 12.8267 269.42 12.3467 269.526 11.76C269.633 11.16 269.686 10.4067 269.686 9.5ZM274.853 9.5C274.853 7.20667 275.293 5.4 276.173 4.08C277.066 2.76 278.5 2.1 280.473 2.1C282.446 2.1 283.873 2.76 284.753 4.08C285.646 5.4 286.093 7.20667 286.093 9.5C286.093 11.82 285.646 13.64 284.753 14.96C283.873 16.28 282.446 16.94 280.473 16.94C278.5 16.94 277.066 16.28 276.173 14.96C275.293 13.64 274.853 11.82 274.853 9.5ZM282.733 9.5C282.733 8.15333 282.586 7.12 282.293 6.4C282 5.66667 281.393 5.3 280.473 5.3C279.553 5.3 278.946 5.66667 278.653 6.4C278.36 7.12 278.213 8.15333 278.213 9.5C278.213 10.4067 278.266 11.16 278.373 11.76C278.48 12.3467 278.693 12.8267 279.013 13.2C279.346 13.56 279.833 13.74 280.473 13.74C281.113 13.74 281.593 13.56 281.913 13.2C282.246 12.8267 282.466 12.3467 282.573 11.76C282.68 11.16 282.733 10.4067 282.733 9.5ZM246.859 29.96C246.859 28.5733 247.159 27.34 247.759 26.26C248.359 25.1667 249.193 24.32 250.259 23.72C251.339 23.1067 252.559 22.8 253.919 22.8C255.586 22.8 257.013 23.24 258.199 24.12C259.386 25 260.179 26.2 260.579 27.72H256.819C256.539 27.1333 256.139 26.6867 255.619 26.38C255.113 26.0733 254.533 25.92 253.879 25.92C252.826 25.92 251.973 26.2867 251.319 27.02C250.666 27.7533 250.339 28.7333 250.339 29.96C250.339 31.1867 250.666 32.1667 251.319 32.9C251.973 33.6333 252.826 34 253.879 34C254.533 34 255.113 33.8467 255.619 33.54C256.139 33.2333 256.539 32.7867 256.819 32.2H260.579C260.179 33.72 259.386 34.92 258.199 35.8C257.013 36.6667 255.586 37.1 253.919 37.1C252.559 37.1 251.339 36.8 250.259 36.2C249.193 35.5867 248.359 34.74 247.759 33.66C247.159 32.58 246.859 31.3467 246.859 29.96ZM274.834 22.96V37H271.414V31.22H266.094V37H262.674V22.96H266.094V28.46H271.414V22.96H274.834ZM286.443 22.96V25.7H280.723V28.66H285.003V31.32H280.723V37H277.303V22.96H286.443Z" fill="white"/>
<path d="M216.548 48L290.11 48" stroke="white" stroke-width="2" stroke-linecap="round" stroke-dasharray="0.1 5"/>
<path d="M171 135L96 135" stroke="white" stroke-linecap="round"/>
<defs>
<linearGradient id="paint0_linear" x1="505" y1="368" x2="204" y2="368" gradientUnits="userSpaceOnUse">
<stop stop-color="white"/>
<stop offset="1" stop-color="white" stop-opacity="0.1"/>
</linearGradient>
<linearGradient id="paint1_linear" x1="374" y1="367" x2="161" y2="367" gradientUnits="userSpaceOnUse">
<stop stop-color="white"/>
<stop offset="1" stop-color="white" stop-opacity="0.1"/>
</linearGradient>
<clipPath id="clip0">
<rect width="102.785" height="102" fill="white" transform="translate(0 196)"/>
</clipPath>
</defs>
</svg>
