<svg width="254" height="377" viewBox="0 0 254 377" fill="none" xmlns="http://www.w3.org/2000/svg">
<path opacity="0.3" d="M4.5 111.5C5.83333 75.8333 17.5 48.3333 39.5 29C61.5 9.66667 91.3333 0 129 0C154 0 175.333 4.33333 193 13C211 21.6667 224.5 33.5 233.5 48.5C242.833 63.5 247.5 80.3333 247.5 99C247.5 121 242 139 231 153C220 166.667 207.167 176 192.5 181V183C211.5 189.333 226.5 199.833 237.5 214.5C248.5 229.167 254 248 254 271C254 291.667 249.167 310 239.5 326C230.167 341.667 216.333 354 198 363C180 372 158.5 376.5 133.5 376.5C93.5 376.5 61.5 366.667 37.5 347C13.8333 327.333 1.33333 297.667 0 258H83C83.3333 272.667 87.5 284.333 95.5 293C103.5 301.333 115.167 305.5 130.5 305.5C143.5 305.5 153.5 301.833 160.5 294.5C167.833 286.833 171.5 276.833 171.5 264.5C171.5 248.5 166.333 237 156 230C146 222.667 129.833 219 107.5 219H91.5V149.5H107.5C124.5 149.5 138.167 146.667 148.5 141C159.167 135 164.5 124.5 164.5 109.5C164.5 97.5 161.167 88.1667 154.5 81.5C147.833 74.8333 138.667 71.5 127 71.5C114.333 71.5 104.833 75.3333 98.5 83C92.5 90.6667 89 100.167 88 111.5H4.5Z" fill="url(#paint0_linear)"/>
<defs>
<linearGradient id="paint0_linear" x1="281.214" y1="15.3465" x2="55.5566" y2="391.452" gradientUnits="userSpaceOnUse">
<stop stop-color="#FFD88D"/>
<stop offset="0.353883" stop-color="#F68DFF" stop-opacity="0.63"/>
<stop offset="1" stop-color="#AB8DFF" stop-opacity="0"/>
</linearGradient>
</defs>
</svg>
