<svg width="232" height="234" viewBox="0 0 232 234" fill="none" xmlns="http://www.w3.org/2000/svg">
<g opacity="0.5" clip-path="url(#clip0)">
<rect opacity="0.6" x="48.5012" y="181.648" width="170.844" height="12.1099" rx="4" fill="white"/>
<path opacity="0.2" fill-rule="evenodd" clip-rule="evenodd" d="M64.7042 181.649C62.4951 181.649 60.7042 179.858 60.7042 177.649V71.5763C60.7042 70.3488 61.2678 69.1892 62.2331 68.4309L131.452 14.0514C132.902 12.9119 134.944 12.9119 136.394 14.0514L205.613 68.4309C206.578 69.1892 207.141 70.3488 207.141 71.5763V177.649C207.141 179.858 205.351 181.649 203.141 181.649H133.923H64.7042Z" fill="white"/>
<rect opacity="0.2" width="48.8125" height="84.7692" rx="4" transform="matrix(-1 0 0 1 158.329 96.8799)" fill="white"/>
<path opacity="0.6" fill-rule="evenodd" clip-rule="evenodd" d="M41.564 81.5175V83.3508C41.564 86.712 45.4581 88.5744 48.0747 86.4647L134.422 16.8431L220.77 86.4647C223.387 88.5745 227.281 86.712 227.281 83.3508V81.5175C227.281 80.3077 226.733 79.1629 225.792 78.4036L200.859 58.3004C200.974 58.0496 201.04 57.7661 201.04 57.4579V15C201.04 13.8955 200.145 13 199.04 13H178.634C177.529 13 176.634 13.8955 176.634 15V38.7681L139.126 8.52542C138.728 6.28279 136.522 4.90835 134.422 5.31796C132.323 4.90836 130.117 6.28279 129.719 8.52541L43.0533 78.4036C42.1115 79.1629 41.564 80.3077 41.564 81.5175Z" fill="white"/>
</g>
<path d="M55.9285 211.742C36.9202 211.742 21.5109 196.333 21.5109 177.324C21.5109 158.316 36.9202 142.907 55.9285 142.907C74.9368 142.907 90.3461 158.316 90.3461 177.324C90.3461 196.333 74.9368 211.742 55.9285 211.742Z" stroke="white" stroke-width="2" stroke-linecap="round" stroke-linejoin="round"/>
<path d="M12.9057 220.343L31.6202 201.628" stroke="white" stroke-width="2" stroke-linecap="round" stroke-linejoin="round"/>
<defs>
<clipPath id="clip0">
<rect width="195.25" height="193.758" fill="white" transform="translate(36.2981)"/>
</clipPath>
</defs>
</svg>
