<svg width="519" height="172" viewBox="0 0 519 172" fill="none" xmlns="http://www.w3.org/2000/svg">
<path d="M505.414 171.414C504.633 172.195 503.367 172.195 502.586 171.414L489.858 158.686C489.077 157.905 489.077 156.639 489.858 155.858C490.639 155.077 491.905 155.077 492.686 155.858L504 167.172L515.314 155.858C516.095 155.077 517.361 155.077 518.142 155.858C518.923 156.639 518.923 157.905 518.142 158.686L505.414 171.414ZM502 170L502 114L506 114L506 170L502 170ZM392 3.99998L8.74228e-08 4L-8.74228e-08 0L392 -1.71349e-05L392 3.99998ZM502 114C502 53.2487 452.751 3.99998 392 3.99998L392 -1.71349e-05C454.96 -1.9887e-05 506 51.0395 506 114L502 114Z" fill="url(#paint0_linear)"/>
<defs>
<linearGradient id="paint0_linear" x1="504" y1="78.673" x2="5.17797e-07" y2="78.673" gradientUnits="userSpaceOnUse">
<stop stop-color="white"/>
<stop offset="0.988102" stop-color="white" stop-opacity="0"/>
</linearGradient>
</defs>
</svg>
