<svg width="251" height="147" viewBox="0 0 251 147" fill="none" xmlns="http://www.w3.org/2000/svg">
<g opacity="0.1" clip-path="url(#clip0)">
<path d="M74.228 48.027C74.228 74.3811 95.5922 95.7454 121.946 95.7454V0.308594C95.5922 0.308594 74.228 21.6728 74.228 48.027Z" fill="#CCCBD0"/>
<path d="M86.1575 48.027C86.1575 67.7926 102.181 83.8158 121.946 83.8158V12.2382C102.181 12.2382 86.1575 28.2614 86.1575 48.027Z" fill="#EFEFEF"/>
<path d="M117.175 50.8343L119.56 50.8343L119.56 61.3604L117.175 61.3604C115.838 61.3604 114.789 60.2027 114.789 58.7289C114.789 55.2554 110.017 55.2554 110.017 58.7289C110.017 63.0974 113.214 66.6235 117.175 66.6235L119.56 66.6235L119.56 69.255C119.56 70.992 120.753 71.8865 121.946 71.8865L121.946 24.1681C120.753 24.1681 119.56 25.0627 119.56 26.7996L119.56 29.4312L117.175 29.4312C113.214 29.4312 110.017 32.9572 110.017 37.3258L110.017 42.9397C110.017 47.3082 113.214 50.8343 117.175 50.8343ZM114.789 37.3258C114.789 35.8519 115.838 34.6942 117.175 34.6942L119.56 34.6942L119.56 45.5712L117.175 45.5712C115.838 45.5712 114.789 44.4135 114.789 42.9397L114.789 37.3258Z" fill="#2C3A65"/>
<path d="M169.665 48.027C169.665 74.3811 148.3 95.7454 121.946 95.7454V0.308594C148.3 0.308594 169.665 21.6728 169.665 48.027Z" fill="#BEBDC2"/>
<path d="M157.735 48.027C157.735 67.7926 141.712 83.8158 121.946 83.8158V12.2382C141.712 12.2382 157.735 28.2614 157.735 48.027Z" fill="#DCDCDC"/>
<path d="M126.718 45.2201H124.332V34.694H126.718C128.054 34.694 129.104 35.8517 129.104 37.3255C129.104 40.799 133.876 40.799 133.876 37.3255C133.876 32.957 130.679 29.4309 126.718 29.4309H124.332V26.7994C124.332 25.0624 123.139 24.1679 121.946 24.1679V71.8863C123.139 71.8863 124.332 70.9917 124.332 69.2548V66.6232H126.718C130.679 66.6232 133.876 63.0971 133.876 58.7286V53.1147C133.876 48.7462 130.679 45.2201 126.718 45.2201ZM129.104 58.7286C129.104 60.2025 128.054 61.3602 126.718 61.3602H124.332V50.4832H126.718C128.054 50.4832 129.104 51.6409 129.104 53.1147V58.7286Z" fill="#1D2951"/>
</g>
<g opacity="0.1" clip-path="url(#clip1)">
<path d="M148.458 78.9589C148.458 96.0402 162.305 109.887 179.386 109.887V48.0303C162.305 48.0303 148.458 61.8775 148.458 78.9589Z" fill="#CCCBD0"/>
<path d="M156.19 78.9589C156.19 91.7699 166.575 102.155 179.387 102.155V55.7624C166.575 55.7624 156.19 66.1478 156.19 78.9589Z" fill="#EFEFEF"/>
<path d="M176.294 80.778L177.84 80.778L177.84 87.6005L176.294 87.6005C175.428 87.6005 174.747 86.8501 174.747 85.8949C174.747 83.6436 171.654 83.6436 171.654 85.8949C171.654 88.7263 173.726 91.0117 176.294 91.0117L177.84 91.0117L177.84 92.7174C177.84 93.8432 178.613 94.423 179.386 94.423L179.386 63.4944C178.613 63.4944 177.84 64.0742 177.84 65.2L177.84 66.9056L176.294 66.9056C173.726 66.9056 171.654 69.191 171.654 72.0225L171.654 75.6611C171.654 78.4926 173.726 80.778 176.294 80.778ZM174.747 72.0225C174.747 71.0672 175.428 70.3169 176.294 70.3169L177.84 70.3169L177.84 77.3668L176.294 77.3668C175.428 77.3668 174.747 76.6164 174.747 75.6611L174.747 72.0225Z" fill="#2C3A65"/>
<path d="M210.315 78.9589C210.315 96.0402 196.468 109.887 179.386 109.887V48.0303C196.468 48.0303 210.315 61.8775 210.315 78.9589Z" fill="#BEBDC2"/>
<path d="M202.583 78.9589C202.583 91.7699 192.197 102.155 179.386 102.155V55.7624C192.197 55.7624 202.583 66.1478 202.583 78.9589Z" fill="#DCDCDC"/>
<path d="M182.479 77.1394H180.933V70.317H182.479C183.345 70.317 184.026 71.0673 184.026 72.0226C184.026 74.2739 187.119 74.2739 187.119 72.0226C187.119 69.1911 185.046 66.9057 182.479 66.9057H180.933V65.2001C180.933 64.0743 180.16 63.4945 179.386 63.4945V94.4231C180.16 94.4231 180.933 93.8433 180.933 92.7174V91.0118H182.479C185.046 91.0118 187.119 88.7264 187.119 85.895V82.2563C187.119 79.4249 185.046 77.1394 182.479 77.1394ZM184.026 85.895C184.026 86.8502 183.345 87.6006 182.479 87.6006H180.933V80.5507H182.479C183.345 80.5507 184.026 81.301 184.026 82.2563V85.895Z" fill="#1D2951"/>
</g>
<g opacity="0.1" clip-path="url(#clip2)">
<path d="M0 37.4208C0 50.1098 10.2865 60.3963 22.9755 60.3963V14.4453C10.2865 14.4453 0 24.7318 0 37.4208Z" fill="#CCCBD0"/>
<path d="M5.74384 37.4205C5.74384 46.9373 13.4587 54.6521 22.9755 54.6521V20.1888C13.4587 20.1888 5.74384 27.9037 5.74384 37.4205Z" fill="#EFEFEF"/>
<path d="M20.678 38.7725L21.8267 38.7725L21.8267 43.8406L20.678 43.8406C20.0346 43.8406 19.5292 43.2832 19.5292 42.5736C19.5292 40.9012 17.2316 40.9012 17.2316 42.5736C17.2316 44.6769 18.7708 46.3747 20.678 46.3747L21.8267 46.3747L21.8267 47.6417C21.8267 48.478 22.4011 48.9087 22.9755 48.9087L22.9755 25.9332C22.4011 25.9332 21.8268 26.3639 21.8268 27.2002L21.8268 28.4673L20.678 28.4673C18.7709 28.4673 17.2316 30.165 17.2316 32.2684L17.2316 34.9714C17.2316 37.0747 18.7709 38.7725 20.678 38.7725ZM19.5292 32.2684C19.5292 31.5588 20.0346 31.0013 20.678 31.0013L21.8267 31.0013L21.8267 36.2384L20.678 36.2384C20.0346 36.2384 19.5292 35.681 19.5292 34.9714L19.5292 32.2684Z" fill="#2C3A65"/>
<path d="M45.9511 37.4208C45.9511 50.1098 35.6646 60.3963 22.9756 60.3963V14.4453C35.6646 14.4453 45.9511 24.7318 45.9511 37.4208Z" fill="#BEBDC2"/>
<path d="M40.2073 37.4205C40.2073 46.9373 32.4924 54.6521 22.9756 54.6521V20.1888C32.4924 20.1888 40.2073 27.9037 40.2073 37.4205Z" fill="#DCDCDC"/>
<path d="M25.2731 36.0697H24.1244V31.0016H25.2731C25.9165 31.0016 26.4219 31.559 26.4219 32.2686C26.4219 33.941 28.7195 33.941 28.7195 32.2686C28.7195 30.1653 27.1803 28.4675 25.2731 28.4675H24.1244V27.2005C24.1244 26.3642 23.55 25.9334 22.9756 25.9334L22.9756 48.909C23.55 48.909 24.1244 48.4783 24.1244 47.6419V46.3749H25.2731C27.1803 46.3749 28.7195 44.6772 28.7195 42.5738V39.8708C28.7195 37.7674 27.1803 36.0697 25.2731 36.0697ZM26.4219 42.5738C26.4219 43.2834 25.9165 43.8408 25.2731 43.8408H24.1244L24.1244 38.6038H25.2731C25.9165 38.6038 26.4219 39.1612 26.4219 39.8708L26.4219 42.5738Z" fill="#1D2951"/>
</g>
<g opacity="0.1" clip-path="url(#clip3)">
<path d="M205.012 23.2841C205.012 35.9731 215.299 46.2596 227.988 46.2596V0.308594C215.299 0.308594 205.012 10.5951 205.012 23.2841Z" fill="#CCCBD0"/>
<path d="M210.756 23.2838C210.756 32.8006 218.471 40.5154 227.988 40.5154V6.05215C218.471 6.05215 210.756 13.767 210.756 23.2838Z" fill="#EFEFEF"/>
<path d="M225.69 24.6358L226.839 24.6358L226.839 29.7039L225.69 29.7039C225.047 29.7039 224.541 29.1465 224.541 28.4369C224.541 26.7645 222.244 26.7645 222.244 28.4369C222.244 30.5402 223.783 32.238 225.69 32.238L226.839 32.238L226.839 33.505C226.839 34.3413 227.413 34.772 227.988 34.772L227.988 11.7965C227.413 11.7965 226.839 12.2272 226.839 13.0636L226.839 14.3306L225.69 14.3306C223.783 14.3306 222.244 16.0283 222.244 18.1317L222.244 20.8347C222.244 22.938 223.783 24.6358 225.69 24.6358ZM224.541 18.1317C224.541 17.4221 225.047 16.8647 225.69 16.8647L226.839 16.8647L226.839 22.1017L225.69 22.1017C225.047 22.1017 224.541 21.5443 224.541 20.8347L224.541 18.1317Z" fill="#2C3A65"/>
<path d="M250.963 23.2841C250.963 35.9731 240.677 46.2596 227.988 46.2596V0.308594C240.677 0.308594 250.963 10.5951 250.963 23.2841Z" fill="#BEBDC2"/>
<path d="M245.219 23.2838C245.219 32.8006 237.504 40.5154 227.988 40.5154V6.05215C237.504 6.05215 245.219 13.767 245.219 23.2838Z" fill="#DCDCDC"/>
<path d="M230.285 21.933H229.136V16.8649H230.285C230.929 16.8649 231.434 17.4223 231.434 18.1319C231.434 19.8043 233.732 19.8043 233.732 18.1319C233.732 16.0286 232.192 14.3308 230.285 14.3308H229.136V13.0638C229.136 12.2275 228.562 11.7968 227.988 11.7968V34.7723C228.562 34.7723 229.136 34.3416 229.136 33.5052V32.2382H230.285C232.192 32.2382 233.732 30.5405 233.732 28.4371V25.7341C233.732 23.6308 232.192 21.933 230.285 21.933ZM231.434 28.4371C231.434 29.1467 230.929 29.7042 230.285 29.7042H229.136V24.4671H230.285C230.929 24.4671 231.434 25.0245 231.434 25.7341V28.4371Z" fill="#1D2951"/>
</g>
<g opacity="0.1" clip-path="url(#clip4)">
<path d="M196.176 132.86C196.176 140.669 202.506 146.999 210.315 146.999V118.721C202.506 118.721 196.176 125.051 196.176 132.86Z" fill="#CCCBD0"/>
<path d="M199.71 132.86C199.71 138.717 204.458 143.464 210.314 143.464V122.256C204.458 122.256 199.71 127.004 199.71 132.86Z" fill="#EFEFEF"/>
<path d="M208.901 133.692L209.607 133.692L209.607 136.811L208.901 136.811C208.505 136.811 208.194 136.468 208.194 136.031C208.194 135.002 206.78 135.002 206.78 136.031C206.78 137.325 207.727 138.37 208.901 138.37L209.607 138.37L209.607 139.15C209.607 139.664 209.961 139.93 210.314 139.93L210.314 125.791C209.961 125.791 209.607 126.056 209.607 126.57L209.607 127.35L208.901 127.35C207.727 127.35 206.78 128.395 206.78 129.689L206.78 131.353C206.78 132.647 207.727 133.692 208.901 133.692ZM208.194 129.689C208.194 129.253 208.505 128.91 208.901 128.91L209.607 128.91L209.607 132.132L208.901 132.132C208.505 132.132 208.194 131.789 208.194 131.353L208.194 129.689Z" fill="#2C3A65"/>
<path d="M224.453 132.86C224.453 140.669 218.123 146.999 210.315 146.999V118.721C218.123 118.721 224.453 125.051 224.453 132.86Z" fill="#BEBDC2"/>
<path d="M220.919 132.86C220.919 138.717 216.171 143.464 210.315 143.464V122.256C216.171 122.256 220.919 127.004 220.919 132.86Z" fill="#DCDCDC"/>
<path d="M211.728 132.029H211.022V128.91H211.728C212.124 128.91 212.435 129.253 212.435 129.689C212.435 130.719 213.849 130.719 213.849 129.689C213.849 128.395 212.902 127.35 211.728 127.35H211.022V126.571C211.022 126.056 210.668 125.791 210.315 125.791V139.93C210.668 139.93 211.022 139.665 211.022 139.15V138.37H211.728C212.902 138.37 213.849 137.325 213.849 136.031V134.368C213.849 133.073 212.902 132.029 211.728 132.029ZM212.435 136.031C212.435 136.468 212.124 136.811 211.728 136.811H211.022V133.588H211.728C212.124 133.588 212.435 133.931 212.435 134.368V136.031Z" fill="#1D2951"/>
</g>
<defs>
<clipPath id="clip0">
<rect width="95.4368" height="95.4368" fill="white" transform="translate(74.228 0.308594)"/>
</clipPath>
<clipPath id="clip1">
<rect width="61.8572" height="61.8572" fill="white" transform="translate(148.458 48.0303)"/>
</clipPath>
<clipPath id="clip2">
<rect width="45.951" height="45.951" fill="white" transform="translate(0 14.4453)"/>
</clipPath>
<clipPath id="clip3">
<rect width="45.951" height="45.951" fill="white" transform="translate(205.012 0.308594)"/>
</clipPath>
<clipPath id="clip4">
<rect width="28.2776" height="28.2776" fill="white" transform="translate(196.176 118.721)"/>
</clipPath>
</defs>
</svg>
