<svg width="194" height="192" viewBox="0 0 194 192" fill="none" xmlns="http://www.w3.org/2000/svg">
<g opacity="0.5" clip-path="url(#clip0)">
<rect opacity="0.6" x="12.4293" y="180" width="169.293" height="12" rx="4" fill="white"/>
<path opacity="0.2" fill-rule="evenodd" clip-rule="evenodd" d="M28.5216 180C26.3125 180 24.5216 178.209 24.5216 176V70.9444C24.5216 69.7169 25.0852 68.5573 26.0505 67.799L94.6048 13.9415C96.0551 12.802 98.0966 12.802 99.547 13.9415L168.101 67.799C169.066 68.5573 169.63 69.7169 169.63 70.9444V176C169.63 178.209 167.839 180 165.63 180H97.0759H28.5216Z" fill="white"/>
<rect opacity="0.2" width="48.3695" height="84" rx="4" transform="matrix(-1 0 0 1 121.261 96.0008)" fill="white"/>
<path opacity="0.6" fill-rule="evenodd" clip-rule="evenodd" d="M5.55499 80.7951V82.5185C5.55499 85.8797 9.44914 87.7421 12.0657 85.6324L97.5708 16.6902L183.076 85.6324C185.692 87.7421 189.587 85.8797 189.587 82.5185V80.7951C189.587 79.5853 189.039 78.4405 188.097 77.6812L163.393 57.7625C163.515 57.5069 163.584 57.2166 163.584 56.9003V14.882C163.584 13.7775 162.689 12.882 161.584 12.882H141.399C140.295 12.882 139.399 13.7775 139.399 14.882V38.4163L102.215 8.43509C101.782 6.25643 99.6315 4.92386 97.5708 5.30166C95.51 4.92389 93.3595 6.25645 92.9263 8.43508L7.04428 77.6812C6.10251 78.4405 5.55499 79.5853 5.55499 80.7951Z" fill="white"/>
</g>
<defs>
<clipPath id="clip0">
<rect width="193.478" height="192" fill="white" transform="translate(0.336914)"/>
</clipPath>
</defs>
</svg>
