<svg width="64" height="64" viewBox="0 0 64 64" fill="none" xmlns="http://www.w3.org/2000/svg">
<path fill-rule="evenodd" clip-rule="evenodd" d="M34.7557 1.45856C34.0298 0.847143 32.9703 0.84715 32.2443 1.45856L3.35583 25.7891C2.93341 26.1449 2.87938 26.7758 3.23516 27.1982C3.59093 27.6206 4.22179 27.6746 4.64421 27.3189L10.6129 22.2919V32.9295C11.2613 32.6978 11.929 32.5066 12.6129 32.3592V20.6074L33.5 3.01581L54.3871 20.6074V59H42.1129V33.2432C42.1129 32.1671 41.2431 31.2876 40.1613 31.2876H26.8387C25.7569 31.2876 24.8871 32.1671 24.8871 33.2432V34.6931C25.5958 35.1674 26.2645 35.6967 26.8871 36.2751V33.2876H40.1129V59H27.619C26.9216 59.7364 26.155 60.4065 25.3295 61H26.8387H40.1613H55.3871H56.3871H59.1936C59.7459 61 60.1936 60.5523 60.1936 60C60.1936 59.4477 59.7459 59 59.1936 59H56.3871V22.2919L62.3558 27.3189C62.7783 27.6746 63.4091 27.6206 63.7649 27.1982C64.1207 26.7758 64.0666 26.1449 63.6442 25.7891L51.6291 15.6697V4.57519C51.6291 4.02291 51.1813 3.57519 50.6291 3.57519C50.0768 3.57519 49.6291 4.02291 49.6291 4.57519V13.9852L34.7557 1.45856Z" fill="#B9FF9C"/>
<circle cx="16" cy="48" r="14.5" stroke="#B9FF9C" stroke-width="3"/>
<path d="M16.6142 55.862H15.4742C15.2082 55.862 15.0752 55.729 15.0752 55.463V54H14.9422C13.9796 54 13.2259 53.7277 12.6812 53.183C12.1492 52.6257 11.8832 51.8593 11.8832 50.884V50.523C11.8832 50.257 12.0162 50.124 12.2822 50.124H13.8972C14.1632 50.124 14.2962 50.257 14.2962 50.523V50.656C14.2962 51.1373 14.3912 51.4667 14.5812 51.644C14.7712 51.8213 15.1196 51.91 15.6262 51.91H16.3862C16.8802 51.91 17.2222 51.815 17.4122 51.625C17.6149 51.435 17.7162 51.0803 17.7162 50.561V50.276C17.7162 49.9593 17.6212 49.7123 17.4312 49.535C17.2412 49.3577 17.0196 49.2373 16.7662 49.174C16.5382 49.1233 16.0886 49.0663 15.4172 49.003C14.7586 48.9397 14.2646 48.8637 13.9352 48.775C13.6059 48.6737 13.2702 48.509 12.9282 48.281C12.2189 47.825 11.8642 46.932 11.8642 45.602V44.899C11.8642 43.8983 12.1302 43.132 12.6622 42.6C13.2069 42.0553 13.9669 41.783 14.9422 41.783H15.0752V40.282C15.0752 40.016 15.2082 39.883 15.4742 39.883H16.6142C16.8802 39.883 17.0132 40.016 17.0132 40.282V41.783H17.0512C17.9506 41.783 18.6599 42.0617 19.1792 42.619C19.6986 43.1763 19.9582 43.9363 19.9582 44.899V45.26C19.9582 45.526 19.8252 45.659 19.5592 45.659H17.9442C17.6782 45.659 17.5452 45.526 17.5452 45.26V45.127C17.5452 44.6457 17.4502 44.3163 17.2602 44.139C17.0829 43.9617 16.7346 43.873 16.2152 43.873H15.6072C15.0879 43.873 14.7332 43.9743 14.5432 44.177C14.3659 44.367 14.2772 44.747 14.2772 45.317V45.697C14.2772 45.9757 14.3722 46.1973 14.5622 46.362C14.7522 46.514 14.9676 46.6153 15.2082 46.666C15.4869 46.7167 15.9556 46.7737 16.6142 46.837C17.2856 46.8877 17.7859 46.97 18.1152 47.084C18.4572 47.1853 18.7929 47.35 19.1222 47.578C19.7936 48.0593 20.1292 48.9207 20.1292 50.162V50.884C20.1292 51.872 19.8506 52.6383 19.2932 53.183C18.7486 53.7277 18.0012 54 17.0512 54H17.0132V55.463C17.0132 55.729 16.8802 55.862 16.6142 55.862Z" fill="#B9FF9C"/>
</svg>
