<svg width="519" height="172" viewBox="0 0 519 172" fill="none" xmlns="http://www.w3.org/2000/svg">
<path d="M13.5858 171.414C14.3668 172.195 15.6332 172.195 16.4142 171.414L29.1421 158.686C29.9232 157.905 29.9232 156.639 29.1421 155.858C28.3611 155.077 27.0948 155.077 26.3137 155.858L15 167.172L3.68627 155.858C2.90521 155.077 1.63891 155.077 0.857842 155.858C0.0768365 156.639 0.0768364 157.905 0.857842 158.686L13.5858 171.414ZM17 170L17 114L13 114L13 170L17 170ZM127 3.99998L519 4L519 0L127 -1.71349e-05L127 3.99998ZM17 114C17 53.2487 66.2487 3.99998 127 3.99998L127 -1.71349e-05C64.0395 -1.9887e-05 13 51.0395 13 114L17 114Z" fill="url(#paint0_linear)"/>
<defs>
<linearGradient id="paint0_linear" x1="15" y1="78.673" x2="519" y2="78.673" gradientUnits="userSpaceOnUse">
<stop stop-color="white"/>
<stop offset="0.988102" stop-color="white" stop-opacity="0"/>
</linearGradient>
</defs>
</svg>
