<svg width="259" height="366" viewBox="0 0 259 366" fill="none" xmlns="http://www.w3.org/2000/svg">
<path opacity="0.3" d="M237.5 75H81.5V144C88.1667 136.667 97.5 130.667 109.5 126C121.5 121.333 134.5 119 148.5 119C173.5 119 194.167 124.667 210.5 136C227.167 147.333 239.333 162 247 180C254.667 198 258.5 217.5 258.5 238.5C258.5 277.5 247.5 308.5 225.5 331.5C203.5 354.167 172.5 365.5 132.5 365.5C105.833 365.5 82.6667 361 63 352C43.3333 342.667 28.1667 329.833 17.5 313.5C6.83333 297.167 1 278.333 0 257H83.5C85.5 267.333 90.3333 276 98 283C105.667 289.667 116.167 293 129.5 293C145.167 293 156.833 288 164.5 278C172.167 268 176 254.667 176 238C176 221.667 172 209.167 164 200.5C156 191.833 144.333 187.5 129 187.5C117.667 187.5 108.333 190.333 101 196C93.6667 201.333 88.8333 208.5 86.5 217.5H4V0H237.5V75Z" fill="url(#paint0_linear)"/>
<defs>
<linearGradient id="paint0_linear" x1="286.196" y1="14.8981" x2="72.1284" y2="388.937" gradientUnits="userSpaceOnUse">
<stop stop-color="#FFD88D"/>
<stop offset="0.353883" stop-color="#F68DFF" stop-opacity="0.63"/>
<stop offset="1" stop-color="#AB8DFF" stop-opacity="0"/>
</linearGradient>
</defs>
</svg>
