<svg width="226" height="192" viewBox="0 0 226 192" fill="none" xmlns="http://www.w3.org/2000/svg">
<g opacity="0.5" clip-path="url(#clip0)">
<rect opacity="0.6" x="43.8014" y="180" width="169.293" height="12" rx="4" fill="white"/>
<path opacity="0.2" fill-rule="evenodd" clip-rule="evenodd" d="M59.8937 180C57.6845 180 55.8937 178.209 55.8937 176V70.9444C55.8937 69.7169 56.4573 68.5574 57.4226 67.799L125.977 13.9415C127.427 12.8021 129.469 12.8021 130.919 13.9415L199.473 67.799C200.438 68.5574 201.002 69.7169 201.002 70.9444V176C201.002 178.209 199.211 180 197.002 180H128.448H59.8937Z" fill="white"/>
<rect opacity="0.2" width="48.3695" height="84" rx="4" transform="matrix(-1 0 0 1 152.633 96.0007)" fill="white"/>
<path opacity="0.6" fill-rule="evenodd" clip-rule="evenodd" d="M36.9271 80.7951V82.5186C36.9271 85.8797 40.8213 87.7422 43.4378 85.6325L128.943 16.6903L214.448 85.6325C217.065 87.7422 220.959 85.8797 220.959 82.5186V80.7951C220.959 79.5853 220.411 78.4406 219.469 77.6812L194.765 57.7626C194.887 57.507 194.956 57.2167 194.956 56.9004V14.8821C194.956 13.7775 194.061 12.8821 192.956 12.8821H172.771C171.667 12.8821 170.771 13.7775 170.771 14.8821V38.4164L133.587 8.43515C133.154 6.2565 131.004 4.92393 128.943 5.30172C126.882 4.92394 124.732 6.2565 124.298 8.43514L38.4164 77.6812C37.4746 78.4406 36.9271 79.5853 36.9271 80.7951Z" fill="white"/>
</g>
<circle cx="64" cy="96" r="63" stroke="white" stroke-width="2"/>
<path d="M72 89L60.7071 100.293C60.3166 100.683 59.6834 100.683 59.2929 100.293L54 95" stroke="white" stroke-width="3" stroke-linecap="round" stroke-linejoin="round"/>
<defs>
<clipPath id="clip0">
<rect width="193.478" height="192" fill="white" transform="translate(31.709)"/>
</clipPath>
</defs>
</svg>
