<svg width="463" height="172" viewBox="0 0 463 172" fill="none" xmlns="http://www.w3.org/2000/svg">
<path d="M449.414 171.414C448.633 172.195 447.367 172.195 446.586 171.414L433.858 158.686C433.077 157.905 433.077 156.639 433.858 155.858C434.639 155.077 435.905 155.077 436.686 155.858L448 167.172L459.314 155.858C460.095 155.077 461.361 155.077 462.142 155.858C462.923 156.639 462.923 157.905 462.142 158.686L449.414 171.414ZM446 170L446 114L450 114L450 170L446 170ZM336 3.99999L8.74228e-08 4L-8.74228e-08 0L336 -1.4687e-05L336 3.99999ZM446 114C446 53.2487 396.751 3.99998 336 3.99999L336 -1.4687e-05C398.96 -1.74391e-05 450 51.0395 450 114L446 114Z" fill="url(#paint0_linear)"/>
<defs>
<linearGradient id="paint0_linear" x1="448" y1="78.673" x2="8.32651e-07" y2="78.673" gradientUnits="userSpaceOnUse">
<stop stop-color="white"/>
<stop offset="0.988102" stop-color="white" stop-opacity="0"/>
</linearGradient>
</defs>
</svg>
