<svg width="197" height="348" viewBox="0 0 197 348" fill="none" xmlns="http://www.w3.org/2000/svg">
<path d="M12.18 92.38H5.94V95.14C6.20667 94.8467 6.58 94.6067 7.06 94.42C7.54 94.2333 8.06 94.14 8.62 94.14C9.62 94.14 10.4467 94.3667 11.1 94.82C11.7667 95.2733 12.2533 95.86 12.56 96.58C12.8667 97.3 13.02 98.08 13.02 98.92C13.02 100.48 12.58 101.72 11.7 102.64C10.82 103.547 9.58 104 7.98 104C6.91333 104 5.98667 103.82 5.2 103.46C4.41333 103.087 3.80667 102.573 3.38 101.92C2.95333 101.267 2.72 100.513 2.68 99.66H6.02C6.1 100.073 6.29333 100.42 6.6 100.7C6.90667 100.967 7.32667 101.1 7.86 101.1C8.48667 101.1 8.95333 100.9 9.26 100.5C9.56667 100.1 9.72 99.5667 9.72 98.9C9.72 98.2467 9.56 97.7467 9.24 97.4C8.92 97.0533 8.45333 96.88 7.84 96.88C7.38667 96.88 7.01333 96.9933 6.72 97.22C6.42667 97.4333 6.23333 97.72 6.14 98.08H2.84V89.38H12.18V92.38ZM22.1278 93.34C22.0211 92.8467 21.8345 92.48 21.5678 92.24C21.3011 91.9867 20.9211 91.86 20.4278 91.86C19.6678 91.86 19.1211 92.1933 18.7878 92.86C18.4545 93.5133 18.2811 94.5533 18.2678 95.98C18.5611 95.5133 18.9811 95.1467 19.5278 94.88C20.0878 94.6133 20.7011 94.48 21.3678 94.48C22.6745 94.48 23.7211 94.8933 24.5078 95.72C25.3078 96.5467 25.7078 97.7 25.7078 99.18C25.7078 100.153 25.5078 101.007 25.1078 101.74C24.7211 102.473 24.1478 103.047 23.3878 103.46C22.6411 103.873 21.7545 104.08 20.7278 104.08C18.6745 104.08 17.2478 103.44 16.4478 102.16C15.6478 100.867 15.2478 99.0133 15.2478 96.6C15.2478 94.0667 15.6678 92.1867 16.5078 90.96C17.3611 89.72 18.7211 89.1 20.5878 89.1C21.5878 89.1 22.4278 89.3 23.1078 89.7C23.8011 90.0867 24.3211 90.6 24.6678 91.24C25.0278 91.88 25.2411 92.58 25.3078 93.34H22.1278ZM20.5478 97.18C19.9745 97.18 19.4945 97.3533 19.1078 97.7C18.7345 98.0333 18.5478 98.5133 18.5478 99.14C18.5478 99.78 18.7211 100.28 19.0678 100.64C19.4278 101 19.9345 101.18 20.5878 101.18C21.1745 101.18 21.6345 101.007 21.9678 100.66C22.3145 100.3 22.4878 99.8133 22.4878 99.2C22.4878 98.5733 22.3211 98.08 21.9878 97.72C21.6545 97.36 21.1745 97.18 20.5478 97.18ZM27.7222 101.4V98.64L34.0422 89.6H37.8622V98.44H39.5022V101.4H37.8622V104H34.4422V101.4H27.7222ZM34.6822 93.36L31.3222 98.44H34.6822V93.36ZM45.1973 100.84L42.9773 106.58H40.7973L41.9573 100.84H45.1973ZM46.9195 96.5C46.9195 94.2067 47.3595 92.4 48.2395 91.08C49.1329 89.76 50.5662 89.1 52.5395 89.1C54.5129 89.1 55.9395 89.76 56.8195 91.08C57.7129 92.4 58.1595 94.2067 58.1595 96.5C58.1595 98.82 57.7129 100.64 56.8195 101.96C55.9395 103.28 54.5129 103.94 52.5395 103.94C50.5662 103.94 49.1329 103.28 48.2395 101.96C47.3595 100.64 46.9195 98.82 46.9195 96.5ZM54.7995 96.5C54.7995 95.1533 54.6529 94.12 54.3595 93.4C54.0662 92.6667 53.4595 92.3 52.5395 92.3C51.6195 92.3 51.0129 92.6667 50.7195 93.4C50.4262 94.12 50.2795 95.1533 50.2795 96.5C50.2795 97.4067 50.3329 98.16 50.4395 98.76C50.5462 99.3467 50.7595 99.8267 51.0795 100.2C51.4129 100.56 51.8995 100.74 52.5395 100.74C53.1795 100.74 53.6595 100.56 53.9795 100.2C54.3129 99.8267 54.5329 99.3467 54.6395 98.76C54.7462 98.16 54.7995 97.4067 54.7995 96.5ZM59.9664 96.5C59.9664 94.2067 60.4064 92.4 61.2864 91.08C62.1797 89.76 63.6131 89.1 65.5864 89.1C67.5597 89.1 68.9864 89.76 69.8664 91.08C70.7597 92.4 71.2064 94.2067 71.2064 96.5C71.2064 98.82 70.7597 100.64 69.8664 101.96C68.9864 103.28 67.5597 103.94 65.5864 103.94C63.6131 103.94 62.1797 103.28 61.2864 101.96C60.4064 100.64 59.9664 98.82 59.9664 96.5ZM67.8464 96.5C67.8464 95.1533 67.6997 94.12 67.4064 93.4C67.1131 92.6667 66.5064 92.3 65.5864 92.3C64.6664 92.3 64.0597 92.6667 63.7664 93.4C63.4731 94.12 63.3264 95.1533 63.3264 96.5C63.3264 97.4067 63.3797 98.16 63.4864 98.76C63.5931 99.3467 63.8064 99.8267 64.1264 100.2C64.4597 100.56 64.9464 100.74 65.5864 100.74C66.2264 100.74 66.7064 100.56 67.0264 100.2C67.3597 99.8267 67.5797 99.3467 67.6864 98.76C67.7931 98.16 67.8464 97.4067 67.8464 96.5ZM73.0133 96.5C73.0133 94.2067 73.4533 92.4 74.3333 91.08C75.2266 89.76 76.6599 89.1 78.6333 89.1C80.6066 89.1 82.0333 89.76 82.9133 91.08C83.8066 92.4 84.2533 94.2067 84.2533 96.5C84.2533 98.82 83.8066 100.64 82.9133 101.96C82.0333 103.28 80.6066 103.94 78.6333 103.94C76.6599 103.94 75.2266 103.28 74.3333 101.96C73.4533 100.64 73.0133 98.82 73.0133 96.5ZM80.8933 96.5C80.8933 95.1533 80.7466 94.12 80.4533 93.4C80.1599 92.6667 79.5533 92.3 78.6333 92.3C77.7133 92.3 77.1066 92.6667 76.8133 93.4C76.5199 94.12 76.3733 95.1533 76.3733 96.5C76.3733 97.4067 76.4266 98.16 76.5333 98.76C76.6399 99.3467 76.8533 99.8267 77.1733 100.2C77.5066 100.56 77.9933 100.74 78.6333 100.74C79.2733 100.74 79.7533 100.56 80.0733 100.2C80.4066 99.8267 80.6266 99.3467 80.7333 98.76C80.8399 98.16 80.8933 97.4067 80.8933 96.5ZM1.66 116.96C1.66 115.573 1.96 114.34 2.56 113.26C3.16 112.167 3.99333 111.32 5.06 110.72C6.14 110.107 7.36 109.8 8.72 109.8C10.3867 109.8 11.8133 110.24 13 111.12C14.1867 112 14.98 113.2 15.38 114.72H11.62C11.34 114.133 10.94 113.687 10.42 113.38C9.91333 113.073 9.33333 112.92 8.68 112.92C7.62667 112.92 6.77333 113.287 6.12 114.02C5.46667 114.753 5.14 115.733 5.14 116.96C5.14 118.187 5.46667 119.167 6.12 119.9C6.77333 120.633 7.62667 121 8.68 121C9.33333 121 9.91333 120.847 10.42 120.54C10.94 120.233 11.34 119.787 11.62 119.2H15.38C14.98 120.72 14.1867 121.92 13 122.8C11.8133 123.667 10.3867 124.1 8.72 124.1C7.36 124.1 6.14 123.8 5.06 123.2C3.99333 122.587 3.16 121.74 2.56 120.66C1.96 119.58 1.66 118.347 1.66 116.96ZM29.6344 109.96V124H26.2144V118.22H20.8944V124H17.4744V109.96H20.8944V115.46H26.2144V109.96H29.6344ZM41.2433 109.96V112.7H35.5233V115.66H39.8033V118.32H35.5233V124H32.1033V109.96H41.2433Z" fill="white"/>
<rect opacity="0.5" x="109" y="348" width="301" height="20" rx="10" transform="rotate(-90 109 348)" fill="url(#paint0_linear)"/>
<rect opacity="0.5" x="66" y="347" width="213" height="20" rx="10" transform="rotate(-90 66 347)" fill="url(#paint1_linear)"/>
<path d="M120.54 4.96L115.52 17H112.02L117.1 5.34H110.88V2.42H120.54V4.96ZM121.923 9.5C121.923 7.20667 122.363 5.4 123.243 4.08C124.137 2.76 125.57 2.1 127.543 2.1C129.517 2.1 130.943 2.76 131.823 4.08C132.717 5.4 133.163 7.20667 133.163 9.5C133.163 11.82 132.717 13.64 131.823 14.96C130.943 16.28 129.517 16.94 127.543 16.94C125.57 16.94 124.137 16.28 123.243 14.96C122.363 13.64 121.923 11.82 121.923 9.5ZM129.803 9.5C129.803 8.15333 129.657 7.12 129.363 6.4C129.07 5.66667 128.463 5.3 127.543 5.3C126.623 5.3 126.017 5.66667 125.723 6.4C125.43 7.12 125.283 8.15333 125.283 9.5C125.283 10.4067 125.337 11.16 125.443 11.76C125.55 12.3467 125.763 12.8267 126.083 13.2C126.417 13.56 126.903 13.74 127.543 13.74C128.183 13.74 128.663 13.56 128.983 13.2C129.317 12.8267 129.537 12.3467 129.643 11.76C129.75 11.16 129.803 10.4067 129.803 9.5ZM134.97 9.5C134.97 7.20667 135.41 5.4 136.29 4.08C137.184 2.76 138.617 2.1 140.59 2.1C142.564 2.1 143.99 2.76 144.87 4.08C145.764 5.4 146.21 7.20667 146.21 9.5C146.21 11.82 145.764 13.64 144.87 14.96C143.99 16.28 142.564 16.94 140.59 16.94C138.617 16.94 137.184 16.28 136.29 14.96C135.41 13.64 134.97 11.82 134.97 9.5ZM142.85 9.5C142.85 8.15333 142.704 7.12 142.41 6.4C142.117 5.66667 141.51 5.3 140.59 5.3C139.67 5.3 139.064 5.66667 138.77 6.4C138.477 7.12 138.33 8.15333 138.33 9.5C138.33 10.4067 138.384 11.16 138.49 11.76C138.597 12.3467 138.81 12.8267 139.13 13.2C139.464 13.56 139.95 13.74 140.59 13.74C141.23 13.74 141.71 13.56 142.03 13.2C142.364 12.8267 142.584 12.3467 142.69 11.76C142.797 11.16 142.85 10.4067 142.85 9.5ZM152.037 13.84L149.817 19.58H147.637L148.797 13.84H152.037ZM153.759 9.5C153.759 7.20667 154.199 5.4 155.079 4.08C155.973 2.76 157.406 2.1 159.379 2.1C161.353 2.1 162.779 2.76 163.659 4.08C164.553 5.4 164.999 7.20667 164.999 9.5C164.999 11.82 164.553 13.64 163.659 14.96C162.779 16.28 161.353 16.94 159.379 16.94C157.406 16.94 155.973 16.28 155.079 14.96C154.199 13.64 153.759 11.82 153.759 9.5ZM161.639 9.5C161.639 8.15333 161.493 7.12 161.199 6.4C160.906 5.66667 160.299 5.3 159.379 5.3C158.459 5.3 157.853 5.66667 157.559 6.4C157.266 7.12 157.119 8.15333 157.119 9.5C157.119 10.4067 157.173 11.16 157.279 11.76C157.386 12.3467 157.599 12.8267 157.919 13.2C158.253 13.56 158.739 13.74 159.379 13.74C160.019 13.74 160.499 13.56 160.819 13.2C161.153 12.8267 161.373 12.3467 161.479 11.76C161.586 11.16 161.639 10.4067 161.639 9.5ZM166.806 9.5C166.806 7.20667 167.246 5.4 168.126 4.08C169.02 2.76 170.453 2.1 172.426 2.1C174.4 2.1 175.826 2.76 176.706 4.08C177.6 5.4 178.046 7.20667 178.046 9.5C178.046 11.82 177.6 13.64 176.706 14.96C175.826 16.28 174.4 16.94 172.426 16.94C170.453 16.94 169.02 16.28 168.126 14.96C167.246 13.64 166.806 11.82 166.806 9.5ZM174.686 9.5C174.686 8.15333 174.54 7.12 174.246 6.4C173.953 5.66667 173.346 5.3 172.426 5.3C171.506 5.3 170.9 5.66667 170.606 6.4C170.313 7.12 170.166 8.15333 170.166 9.5C170.166 10.4067 170.22 11.16 170.326 11.76C170.433 12.3467 170.646 12.8267 170.966 13.2C171.3 13.56 171.786 13.74 172.426 13.74C173.066 13.74 173.546 13.56 173.866 13.2C174.2 12.8267 174.42 12.3467 174.526 11.76C174.633 11.16 174.686 10.4067 174.686 9.5ZM179.853 9.5C179.853 7.20667 180.293 5.4 181.173 4.08C182.066 2.76 183.5 2.1 185.473 2.1C187.446 2.1 188.873 2.76 189.753 4.08C190.646 5.4 191.093 7.20667 191.093 9.5C191.093 11.82 190.646 13.64 189.753 14.96C188.873 16.28 187.446 16.94 185.473 16.94C183.5 16.94 182.066 16.28 181.173 14.96C180.293 13.64 179.853 11.82 179.853 9.5ZM187.733 9.5C187.733 8.15333 187.586 7.12 187.293 6.4C187 5.66667 186.393 5.3 185.473 5.3C184.553 5.3 183.946 5.66667 183.653 6.4C183.36 7.12 183.213 8.15333 183.213 9.5C183.213 10.4067 183.266 11.16 183.373 11.76C183.48 12.3467 183.693 12.8267 184.013 13.2C184.346 13.56 184.833 13.74 185.473 13.74C186.113 13.74 186.593 13.56 186.913 13.2C187.246 12.8267 187.466 12.3467 187.573 11.76C187.68 11.16 187.733 10.4067 187.733 9.5ZM151.859 29.96C151.859 28.5733 152.159 27.34 152.759 26.26C153.359 25.1667 154.193 24.32 155.259 23.72C156.339 23.1067 157.559 22.8 158.919 22.8C160.586 22.8 162.013 23.24 163.199 24.12C164.386 25 165.179 26.2 165.579 27.72H161.819C161.539 27.1333 161.139 26.6867 160.619 26.38C160.113 26.0733 159.533 25.92 158.879 25.92C157.826 25.92 156.973 26.2867 156.319 27.02C155.666 27.7533 155.339 28.7333 155.339 29.96C155.339 31.1867 155.666 32.1667 156.319 32.9C156.973 33.6333 157.826 34 158.879 34C159.533 34 160.113 33.8467 160.619 33.54C161.139 33.2333 161.539 32.7867 161.819 32.2H165.579C165.179 33.72 164.386 34.92 163.199 35.8C162.013 36.6667 160.586 37.1 158.919 37.1C157.559 37.1 156.339 36.8 155.259 36.2C154.193 35.5867 153.359 34.74 152.759 33.66C152.159 32.58 151.859 31.3467 151.859 29.96ZM179.834 22.96V37H176.414V31.22H171.094V37H167.674V22.96H171.094V28.46H176.414V22.96H179.834ZM191.443 22.96V25.7H185.723V28.66H190.003V31.32H185.723V37H182.303V22.96H191.443Z" fill="white"/>
<path d="M121.548 48L195.11 48" stroke="white" stroke-width="2" stroke-linecap="round" stroke-dasharray="0.1 5"/>
<path d="M76 135L1 135" stroke="white" stroke-linecap="round"/>
<defs>
<linearGradient id="paint0_linear" x1="410" y1="368" x2="109" y2="368" gradientUnits="userSpaceOnUse">
<stop stop-color="white"/>
<stop offset="1" stop-color="white" stop-opacity="0.1"/>
</linearGradient>
<linearGradient id="paint1_linear" x1="279" y1="367" x2="66" y2="367" gradientUnits="userSpaceOnUse">
<stop stop-color="white"/>
<stop offset="1" stop-color="white" stop-opacity="0.1"/>
</linearGradient>
</defs>
</svg>
