<svg width="408" height="789" viewBox="0 0 408 789" fill="none" xmlns="http://www.w3.org/2000/svg">
<g opacity="0.5">
<path d="M121.086 136.863C94.675 110.452 94.675 67.6324 121.086 41.2218L137.026 25.2816C163.436 -1.12902 206.256 -1.12901 232.667 25.2816L312.368 104.983L200.787 216.564L121.086 136.863Z" fill="#8A74AA"/>
<path d="M121.086 136.863C94.675 110.452 94.675 67.6324 121.086 41.2218L137.026 25.2816C163.436 -1.12902 206.256 -1.12901 232.667 25.2816L312.368 104.983L200.787 216.564L121.086 136.863Z" fill="url(#paint0_radial)"/>
<path d="M160.936 112.953C147.731 99.7473 147.731 78.3373 160.936 65.132C174.141 51.9267 195.551 51.9267 208.757 65.132L280.487 136.863L232.667 184.684L160.936 112.953Z" fill="#493E7A"/>
<path d="M169.79 174.266C175.788 116.863 224.179 73.2642 281.895 73.2642L507.106 73.2642C564.822 73.2642 613.212 116.863 619.21 174.266L648.107 450.857L140.893 450.857L169.79 174.266Z" fill="#A58FBE"/>
<path d="M169.79 174.266C175.788 116.863 224.179 73.2642 281.895 73.2642L507.106 73.2642C564.822 73.2642 613.212 116.863 619.21 174.266L648.107 450.857L140.893 450.857L169.79 174.266Z" fill="url(#paint1_linear)"/>
<path d="M157.8 670.65C157.8 664.425 162.846 659.378 169.071 659.378H293.057C299.282 659.378 304.329 664.425 304.329 670.65V777.728C304.329 783.953 299.282 789 293.057 789H169.071C162.846 789 157.8 783.953 157.8 777.728L157.8 670.65Z" fill="#BDAECF"/>
<path d="M157.8 670.65C157.8 664.425 162.846 659.378 169.071 659.378H293.057C299.282 659.378 304.329 664.425 304.329 670.65V777.728C304.329 783.953 299.282 789 293.057 789H169.071C162.846 789 157.8 783.953 157.8 777.728L157.8 670.65Z" fill="url(#paint2_linear)"/>
<path d="M484.671 670.65C484.671 664.425 489.718 659.378 495.943 659.378L619.929 659.378C626.154 659.378 631.2 664.425 631.2 670.65V777.728C631.2 783.953 626.154 789 619.929 789L495.943 789C489.718 789 484.671 783.953 484.671 777.728V670.65Z" fill="#BDAECF"/>
<path d="M484.671 670.65C484.671 664.425 489.718 659.378 495.943 659.378L619.929 659.378C626.154 659.378 631.2 664.425 631.2 670.65V777.728C631.2 783.953 626.154 789 619.929 789L495.943 789C489.718 789 484.671 783.953 484.671 777.728V670.65Z" fill="url(#paint3_linear)"/>
<path d="M56.3572 518.486C56.3572 437.56 121.96 371.957 202.886 371.957L586.114 371.957C667.04 371.957 732.643 437.56 732.643 518.486V586.114C732.643 667.04 667.04 732.643 586.114 732.643H202.886C121.96 732.643 56.3572 667.04 56.3572 586.114L56.3572 518.486Z" fill="#AC9AC0"/>
<path opacity="0.5" d="M281.786 247.971C281.786 241.746 286.832 236.7 293.057 236.7H326.871C333.096 236.7 338.143 241.746 338.143 247.971V293.057C338.143 299.282 333.096 304.329 326.871 304.329H293.057C286.832 304.329 281.786 299.282 281.786 293.057V247.971Z" fill="#493E7A"/>
<path d="M281.786 259.243C281.786 253.018 286.832 247.971 293.057 247.971H326.871C333.096 247.971 338.143 253.018 338.143 259.243V293.057C338.143 299.282 333.096 304.329 326.871 304.329H293.057C286.832 304.329 281.786 299.282 281.786 293.057V259.243Z" fill="#493E7A"/>
<path opacity="0.5" d="M219.793 614.293C198.005 614.293 180.343 596.63 180.343 574.843L180.343 529.757C180.343 507.969 198.005 490.307 219.793 490.307L264.879 490.307C286.666 490.307 304.329 507.969 304.329 529.757V574.843C304.329 596.63 286.666 614.293 264.879 614.293H219.793Z" fill="#493E7A"/>
<path d="M219.793 580.479C198.005 580.479 180.343 562.816 180.343 541.029L180.343 529.757C180.343 507.97 198.005 490.307 219.793 490.307L264.879 490.307C286.666 490.307 304.329 507.97 304.329 529.757V541.029C304.329 562.816 286.666 580.479 264.879 580.479H219.793Z" fill="#493E7A"/>
</g>
<defs>
<radialGradient id="paint0_radial" cx="0" cy="0" r="1" gradientUnits="userSpaceOnUse" gradientTransform="translate(287.421 191.618) rotate(-135) scale(187.297 163.885)">
<stop offset="0.517631" stop-color="#65558D"/>
<stop offset="1" stop-color="#9886B0" stop-opacity="0"/>
</radialGradient>
<linearGradient id="paint1_linear" x1="431.132" y1="433.95" x2="431.132" y2="197.25" gradientUnits="userSpaceOnUse">
<stop stop-color="#6C5E8F" stop-opacity="0.83"/>
<stop offset="1" stop-color="#A290B7" stop-opacity="0"/>
</linearGradient>
<linearGradient id="paint2_linear" x1="557.936" y1="659.378" x2="557.936" y2="789" gradientUnits="userSpaceOnUse">
<stop offset="0.578125" stop-color="#6C5E8F"/>
<stop offset="0.947917" stop-color="#6C5E8F" stop-opacity="0"/>
</linearGradient>
<linearGradient id="paint3_linear" x1="557.936" y1="659.378" x2="557.936" y2="789" gradientUnits="userSpaceOnUse">
<stop offset="0.578125" stop-color="#6C5E8F"/>
<stop offset="0.947917" stop-color="#6C5E8F" stop-opacity="0"/>
</linearGradient>
</defs>
</svg>
