<svg width="262" height="375" viewBox="0 0 262 375" fill="none" xmlns="http://www.w3.org/2000/svg">
<path opacity="0.3" d="M172 106C169.333 93.6667 164.667 84.5 158 78.5C151.333 72.1667 141.833 69 129.5 69C110.5 69 96.8333 77.3333 88.5 94C80.1667 110.333 75.8333 136.333 75.5 172C82.8333 160.333 93.3333 151.167 107 144.5C121 137.833 136.333 134.5 153 134.5C185.667 134.5 211.833 144.833 231.5 165.5C251.5 186.167 261.5 215 261.5 252C261.5 276.333 256.5 297.667 246.5 316C236.833 334.333 222.5 348.667 203.5 359C184.833 369.333 162.667 374.5 137 374.5C85.6667 374.5 50 358.5 30 326.5C10 294.167 0 247.833 0 187.5C0 124.167 10.5 77.1667 31.5 46.5C52.8333 15.5 86.8333 0 133.5 0C158.5 0 179.5 5 196.5 15C213.833 24.6667 226.833 37.5 235.5 53.5C244.5 69.5 249.833 87 251.5 106H172ZM132.5 202C118.167 202 106.167 206.333 96.5 215C87.1667 223.333 82.5 235.333 82.5 251C82.5 267 86.8333 279.5 95.5 288.5C104.5 297.5 117.167 302 133.5 302C148.167 302 159.667 297.667 168 289C176.667 280 181 267.833 181 252.5C181 236.833 176.833 224.5 168.5 215.5C160.167 206.5 148.167 202 132.5 202Z" fill="url(#paint0_linear)"/>
<defs>
<linearGradient id="paint0_linear" x1="289.518" y1="15.265" x2="68.7668" y2="396.08" gradientUnits="userSpaceOnUse">
<stop stop-color="#FFD88D"/>
<stop offset="0.353883" stop-color="#F68DFF" stop-opacity="0.63"/>
<stop offset="1" stop-color="#AB8DFF" stop-opacity="0"/>
</linearGradient>
</defs>
</svg>
