<svg width="200" height="233" viewBox="0 0 200 233" fill="none" xmlns="http://www.w3.org/2000/svg">
<path opacity="0.2" d="M57.8125 4C57.8125 1.79086 59.6034 0 61.8125 0H153.674C154.724 0 155.732 0.41296 156.48 1.14973L198.806 42.8248C199.57 43.5766 200 44.6034 200 45.675V196C200 198.209 198.209 200 196 200H61.8125C59.6034 200 57.8125 198.209 57.8125 196V4Z" fill="white"/>
<path opacity="0.2" fill-rule="evenodd" clip-rule="evenodd" d="M200 45.675C200 46.959 198.959 47.9999 197.675 47.9999H155.25C153.041 47.9999 151.25 46.209 151.25 43.9999V2.42372C151.25 1.08514 152.335 0 153.674 0C154.724 0 155.732 0.41296 156.48 1.14973L198.806 42.8248C199.57 43.5766 200 44.6034 200 45.675Z" fill="white"/>
<rect opacity="0.2" x="92.1875" y="103.125" width="67.1875" height="12.5" rx="4" fill="white"/>
<rect opacity="0.2" x="92.1875" y="79.6875" width="67.1875" height="12.5" rx="4" fill="white"/>
<rect opacity="0.2" x="139.062" y="126.562" width="20.3125" height="12.5" rx="4" fill="white"/>
<g opacity="0.7">
<circle cx="58.5938" cy="110.156" r="57.5938" stroke="white" stroke-width="2"/>
<path d="M68 105.063L56.7071 116.355C56.3166 116.746 55.6834 116.746 55.2929 116.355L50 111.063" stroke="white" stroke-width="2" stroke-linecap="round" stroke-linejoin="round"/>
</g>
<g opacity="0.5">
<path d="M98.2732 201L115 210.463L101.728 233L95.7788 224.172L85 223.538L98.2732 201Z" fill="#CCCBD0"/>
<path d="M93 193C93 206.255 103.745 217 117 217V169C103.745 169 93 179.745 93 193Z" fill="#EFEFEF"/>
<path d="M101 193C101 201.837 108.163 209 117 209V177C108.163 177 101 184.163 101 193Z" fill="#CCCBD0"/>
<path d="M117 181C116.679 180.998 116.357 181.158 116.192 181.48L113.183 187.354C113.054 187.601 112.797 187.781 112.516 187.825L105.76 188.769C105.034 188.87 104.742 189.735 105.269 190.229L110.151 194.8C110.362 195.002 110.455 195.283 110.408 195.552L109.261 201.999C109.132 202.695 109.905 203.234 110.561 202.897L116.602 199.853C116.725 199.789 116.862 199.755 117 199.753V181Z" fill="#2C3A65"/>
<path d="M135.727 201L119 210.463L132.272 233L138.221 224.172L149 223.538L135.727 201Z" fill="#BEBDC2"/>
<path d="M141 193C141 206.255 130.255 217 117 217V169C130.255 169 141 179.745 141 193Z" fill="#DCDCDC"/>
<path d="M133 193C133 201.837 125.837 209 117 209V177C125.837 177 133 184.163 133 193Z" fill="#BEBDC2"/>
<path d="M117 181C117.321 180.998 117.643 181.158 117.808 181.48L120.817 187.354C120.946 187.601 121.203 187.781 121.484 187.825L128.24 188.769C128.966 188.87 129.258 189.735 128.731 190.229L123.849 194.8C123.638 195.002 123.545 195.283 123.592 195.552L124.739 201.999C124.868 202.695 124.095 203.234 123.439 202.897L117.398 199.853C117.275 199.789 117.138 199.755 117 199.753V181Z" fill="#1D2951"/>
</g>
</svg>
